<?xml version="1.0" encoding="UTF-8"?>
<svg width="197px" height="299px" viewBox="0 0 197 299" version="1.1" xmlns="http://www.w3.org/2000/svg" xmlns:xlink="http://www.w3.org/1999/xlink">
    <!-- Generator: Sketch 53.2 (72643) - https://sketchapp.com -->
    <title>paul_logo</title>
    <desc>Created with Sketch.</desc>
    <defs>
        <polygon id="path-1" points="0.707379739 0.251644737 79.582985 0.251644737 79.582985 49.9349013 0.707379739 49.9349013"></polygon>
        <polygon id="path-3" points="0.100875 0.596308869 75.5187829 0.596308869 75.5187829 29.6052632 0.100875 29.6052632"></polygon>
        <polygon id="path-5" points="0.152467105 0.724248325 93.0009868 0.724248325 93.0009868 32.2055603 0.152467105 32.2055603"></polygon>
    </defs>
    <g id="paul_logo" stroke="none" stroke-width="1" fill="none" fill-rule="evenodd">
        <g id="Group-82" transform="translate(0.000000, -1.000000)">
            <path d="M67.1968421,57.3035526 C66.4833553,57.3035526 65.7876316,56.9423684 65.3909211,56.2880921 C64.7859868,55.2913816 65.1027632,53.9936842 66.0994737,53.38875 C70.185,50.9078289 78.0876316,50.3048684 82.1534211,53.2466447 C83.0978289,53.9295395 83.31,55.2489474 82.6261184,56.1933553 C81.9432237,57.1377632 80.6238158,57.3499342 79.6784211,56.6660526 C77.1767763,54.8561842 71.0425658,55.3259211 68.2902632,56.9966447 C67.9478289,57.2048684 67.5698684,57.3035526 67.1968421,57.3035526 L67.1968421,57.3035526 Z M100.150461,57.3035526 C99.4369737,57.3035526 98.74125,56.9423684 98.3435526,56.2890789 C97.7386184,55.2923684 98.0563816,53.9936842 99.0521053,53.38875 C103.137632,50.9058553 111.04125,50.3038816 115.106053,53.2466447 C116.050461,53.9305263 116.262632,55.2499342 115.577763,56.1943421 C114.894868,57.1377632 113.574474,57.3499342 112.631053,56.6660526 C110.128421,54.8551974 103.997171,55.3229605 101.243882,56.9966447 C100.901447,57.2048684 100.523487,57.3035526 100.150461,57.3035526 L100.150461,57.3035526 Z M90.3826974,93.2176974 C86.9445395,93.2176974 83.6642763,91.5045395 81.3521053,88.4926974 C80.6425658,87.5680263 80.8172368,86.2426974 81.7419079,85.5331579 C82.6646053,84.8216447 83.9919079,84.9963158 84.7014474,85.9219737 C86.235,87.9203289 88.3478289,89.0621053 90.5129605,88.995 C92.5675658,88.9515789 94.4593421,87.8443421 95.8409211,85.8775658 C96.5109868,84.9232895 97.8264474,84.6923684 98.7817105,85.3624342 C99.7359868,86.0325 99.9659211,87.3489474 99.2958553,88.3032237 C97.1228289,91.3979605 94.0359868,93.1426974 90.6027632,93.2157237 C90.5297368,93.2176974 90.4557237,93.2176974 90.3826974,93.2176974 L90.3826974,93.2176974 Z M123.993553,60.2640789 L123.993553,73.9723026 C126.624474,72.6825 128.372171,70.0644079 128.372171,67.1147368 C128.372171,64.2015789 126.615592,61.5617763 123.993553,60.2640789 L123.993553,60.2640789 Z M57.1626316,60.2611184 C54.5366447,61.5548684 52.785,64.1838158 52.785,67.1147368 C52.785,70.0801974 54.52875,72.6913816 57.1626316,73.9752632 L57.1626316,60.2611184 Z M75.1142763,102.821645 C76.0152632,117.709145 86.3928947,118.910132 89.6721711,118.910132 C89.8063816,118.910132 89.9366447,118.921974 90.0629605,118.945658 C90.1902632,118.921974 90.3205263,118.910132 90.45375,118.910132 C93.6975,118.910132 103.884671,117.733816 104.978092,103.306184 C100.996184,105.033158 96.3294079,106.089079 90.9215132,106.089079 L90.2326974,106.089079 C84.3373026,106.089079 79.3221711,104.834803 75.1142763,102.821645 L75.1142763,102.821645 Z M70.6734868,121.633816 C74.9889474,125.519013 81.0945395,128.602895 89.8280921,128.602895 C89.9070395,128.602895 89.9859868,128.607829 90.0619737,128.616711 C90.1399342,128.607829 90.2178947,128.602895 90.2968421,128.602895 C99.0303947,128.602895 105.135987,125.519013 109.451447,121.633816 L109.451447,118.518355 C109.451447,117.352895 110.395855,116.4075 111.562303,116.4075 C112.310329,116.4075 112.966579,116.796316 113.341579,117.381513 C115.799803,114.151579 117.355066,110.920658 118.399145,108.750592 L118.733684,108.057829 C119.211316,107.076908 120.356053,106.62 121.380395,107.007829 C121.479079,107.045329 122.770855,107.541711 125.735329,108.969671 C124.625132,104.895 121.740592,98.8801974 115.189934,96.2226316 C113.491579,97.9723026 111.532697,99.6075 109.294539,101.023618 C109.190921,111.299605 104.215263,123.131842 90.45375,123.131842 C90.3205263,123.131842 90.1902632,123.119013 90.0629605,123.095329 C89.9366447,123.119013 89.8063816,123.131842 89.6721711,123.131842 C75.7646053,123.131842 70.8294079,111.045 70.8294079,100.694013 C70.8294079,100.580526 70.8382895,100.469013 70.8560526,100.359474 C68.8971711,99.0134211 67.16625,97.4986184 65.6524342,95.8940132 C65.5290789,95.9749342 65.3948684,96.0430263 65.2517763,96.0982895 C58.4771053,98.6877632 55.5185526,104.829868 54.3896053,108.969671 C57.3540789,107.541711 58.6468421,107.045329 58.7455263,107.007829 C59.7669079,106.620987 60.9136184,107.075921 61.3922368,108.057829 L61.7267763,108.749605 C62.7698684,110.919671 64.3261184,114.151579 66.7833553,117.381513 C67.1583553,116.796316 67.8155921,116.4075 68.5626316,116.4075 C69.7280921,116.4075 70.6734868,117.352895 70.6734868,118.518355 L70.6734868,121.633816 Z M150.340263,143.458816 C149.173816,143.458816 148.229408,142.513421 148.229408,141.347961 C148.229408,133.700921 148.229408,125.794342 136.658684,119.431184 C128.677105,115.040724 123.960987,112.768026 121.651776,111.72 C120.165592,114.746645 117.722171,119.309803 113.673158,123.419013 L113.673158,134.624605 C113.673158,135.790066 112.72875,136.735461 111.562303,136.735461 C110.395855,136.735461 109.451447,135.790066 109.451447,134.624605 L109.451447,127.031842 C104.761974,130.379211 98.5448684,132.825592 90.2968421,132.825592 C90.2178947,132.825592 90.1399342,132.820658 90.0619737,132.812763 C89.9859868,132.820658 89.9070395,132.825592 89.8280921,132.825592 C81.5800658,132.825592 75.3629605,130.379211 70.6734868,127.031842 L70.6734868,134.624605 C70.6734868,135.790066 69.7280921,136.735461 68.5626316,136.735461 C67.3971711,136.735461 66.4517763,135.790066 66.4517763,134.624605 L66.4517763,123.419013 C62.4027632,119.309803 59.9603289,114.746645 58.4741447,111.72 C56.1659211,112.767039 51.4488158,115.040724 43.4672368,119.431184 C31.8965132,125.794342 31.8965132,133.700921 31.8965132,141.347961 C31.8965132,142.513421 30.9511184,143.458816 29.7856579,143.458816 C28.6201974,143.458816 27.6748026,142.513421 27.6748026,141.347961 C27.6748026,133.730526 27.6748026,123.297632 41.4333553,115.731513 C44.6830263,113.944342 47.3998026,112.501579 49.6458553,111.343026 C50.1323684,107.043355 52.9902632,96.8068421 62.8576974,92.5170395 C59.21625,87.4880921 57.4241447,82.1315132 57.1892763,78.5028947 C52.1050658,76.9821711 48.5623026,72.4190132 48.5623026,67.1147368 C48.5623026,61.8795395 52.1119737,57.2739474 57.1626316,55.7364474 L57.1626316,41.97 C57.1626316,40.8045395 58.1080263,39.8591447 59.2734868,39.8591447 C60.4389474,39.8591447 61.3843421,40.8045395 61.3843421,41.97 L61.3843421,77.7075 C61.3843421,84.5838158 69.9659211,101.867368 90.2326974,101.867368 L90.9215132,101.867368 C111.190263,101.867368 119.771842,84.5838158 119.771842,77.7075 L119.771842,49.7867763 C119.719539,49.5992763 119.690921,49.4019079 119.692895,49.1976316 L119.771842,37.7591447 C119.779737,36.5986184 120.723158,35.6630921 121.882697,35.6630921 L121.890592,35.6630921 C123.053092,35.6670395 123.993553,36.6104605 123.993553,37.7739474 L123.993553,55.7364474 C129.034342,57.2778947 132.593882,61.9081579 132.593882,67.1147368 C132.593882,72.3923684 129.043224,76.97625 123.966908,78.5019079 C123.727105,82.2163816 121.856053,87.7397368 118.038947,92.8713158 C127.284671,97.3456579 130.005395,107.158816 130.480066,111.343026 C132.725132,112.501579 135.442895,113.944342 138.692566,115.7325 C152.451118,123.298618 152.451118,133.730526 152.451118,141.347961 C152.451118,142.513421 151.506711,143.458816 150.340263,143.458816 L150.340263,143.458816 Z" id="Fill-1" fill="#009B63"></path>
            <path d="M81.8625987,50.1763816 C73.6500987,50.1763816 66.5922039,48.2283553 61.3402303,44.3589474 C55.0806908,39.7474342 52.3254276,32.9875658 53.9734539,26.2790132 C55.8810197,18.5046711 63.1787171,12.4642105 73.9945066,9.70697368 C77.0191776,8.93526316 77.8639145,8.63822368 81.4737829,8.25631579 C82.2820066,8.16453947 83.0349671,8.67375 83.1346382,9.38230263 C83.2352961,10.0908553 82.6530592,10.7352632 81.8349671,10.8211184 C78.3938487,11.18625 77.7010855,11.4556579 74.8372697,12.1869079 C65.1060197,14.6668421 58.5642434,19.9977632 56.8915461,26.8148684 C55.4774013,32.5819737 57.8625987,38.4053289 63.2734539,42.3901974 C72.0188487,48.8342763 86.5836513,49.3207895 103.220822,43.7293421 C108.525099,41.9480921 111.25273,40.7036842 114.032664,38.7951316 C117.357336,37.0573026 120.98102,36.0428289 124.582993,35.7961184 C123.865559,35.3244079 123.088914,34.9711184 122.284638,34.7599342 C121.785296,34.6503947 121.221809,34.305 121.063914,33.8816447 C120.905033,33.4573026 120.844836,32.9698026 121.177401,32.6283553 C127.098454,26.5138816 129.317862,19.8753947 128.03102,11.9382237 C125.313257,14.3471053 121.616546,14.2760526 118.007664,14.1872368 C113.906349,14.1013816 109.681678,14.0086184 105.40273,16.8467763 C104.872796,17.2750658 104.307336,17.6984211 103.710296,18.1188158 C103.092533,18.5569737 102.183651,18.4957895 101.65273,17.9776974 C101.122796,17.4615789 101.155362,16.6740789 101.728717,16.1915132 C102.309967,15.7020395 102.894178,15.2628947 103.477401,14.8701316 C106.972796,12.0428289 108.73727,9.21059211 108.808322,6.30236842 C107.39023,7.43131579 105.711612,8.13394737 104.777072,8.46947368 C102.488586,9.28657895 98.2609539,9.55796053 95.4652303,9.73756579 L90.0642434,10.0908553 C89.2806908,10.1392105 88.5247697,9.61322368 88.460625,8.90171053 C88.3984539,8.19019737 89.0122697,7.56947368 89.8343092,7.51322368 L95.2451645,7.15993421 C97.6935197,7.00401316 101.790888,6.74151316 103.636283,6.08032895 C105.565559,5.38855263 107.782993,4.08197368 108.214243,2.48625 C108.367204,1.92276316 108.934638,1.51618421 109.60273,1.49052632 C110.255033,1.41651316 110.87477,1.82901316 111.085954,2.37868421 C112.350099,5.72506579 111.934638,8.99052632 109.853388,12.1415132 C112.786283,11.4872368 115.594836,11.5513816 118.081678,11.6046711 C123.02477,11.7122368 125.675428,11.5977632 127.440888,8.01157895 C127.695493,7.49644737 128.27773,7.16486842 128.946809,7.23098684 C129.591217,7.28131579 130.126086,7.68296053 130.269178,8.23065789 C132.79352,17.7980921 131.050757,25.6750658 124.779375,32.8602632 C126.500428,33.6260526 128.034967,34.8369079 129.210296,36.3744079 C129.527072,36.7888816 129.541875,37.3198026 129.251743,37.7461184 C128.959638,38.1714474 128.413914,38.4319737 127.842533,38.3747368 C123.760954,38.0757237 119.449441,38.9806579 115.728059,40.9148684 C112.480362,43.1579605 109.05898,44.5405263 104.301414,46.1392105 C96.279375,48.83625 88.6747697,50.1763816 81.8625987,50.1763816" id="Fill-3" fill="#009B63"></path>
            <g id="Group-7" transform="translate(52.302632, 0.735197)">
                <mask id="mask-2" fill="white">
                    <use xlink:href="#path-1"></use>
                </mask>
                <g id="Clip-6"></g>
                <path d="M29.3609211,8.00398026 C29.3165132,8.00398026 29.2721053,8.00595395 29.2267105,8.01088816 C26.0994079,8.34246711 25.0829605,8.60496711 22.8546711,9.18128289 L21.8135526,9.44970395 C11.1793421,12.1605592 4.01190789,18.0697697 2.14973684,25.6615461 C0.551052632,32.1697697 3.23526316,38.7362171 9.33,43.2263487 C14.4102632,46.9694408 21.4059868,48.9480592 29.5602632,48.9480592 C36.4276974,48.9480592 43.92375,47.5980592 51.8421711,44.9365461 C56.5651974,43.3487171 59.9293421,41.9947697 63.1454605,39.7733882 C67.0059868,37.7631908 71.4053289,36.8444408 75.5757237,37.1474013 C75.9615789,37.1878618 76.3415132,37.0230592 76.5418421,36.7319408 C76.7125658,36.4812829 76.7026974,36.1852303 76.5151974,35.9395066 C75.3961184,34.4750329 73.9316447,33.3125329 72.2767105,32.5763487 L71.6658553,32.3049671 L72.105,31.8006908 C78.2678289,24.7388487 79.9790132,17.0552961 77.4892105,7.62108553 C77.4003947,7.28161184 77.0372368,7.02108553 76.6059868,6.98753289 C76.1668421,6.94608553 75.7543421,7.14246711 75.5796711,7.49575658 C73.6859211,11.3444408 70.7658553,11.4707566 65.7684868,11.3631908 C63.2855921,11.3099013 60.5175,11.2506908 57.6576316,11.8881908 L56.4655263,12.1546382 L57.1395395,11.1342434 C59.1240789,8.12930921 59.5217763,4.99509868 58.3217763,1.81746711 C58.1984211,1.49773026 57.7957895,1.19970395 57.3566447,1.24509868 C56.8681579,1.26582237 56.4842763,1.52536184 56.3875658,1.880625 C55.7826316,4.11582237 52.4944737,5.45299342 51.5007237,5.80924342 C49.5852632,6.49608553 45.4464474,6.75957237 42.9734211,6.91746711 L37.5645395,7.27075658 C37.2655263,7.29049342 36.9941447,7.41878289 36.8224342,7.61911184 C36.7326316,7.72470395 36.63,7.89641447 36.6497368,8.12338816 C36.6872368,8.54970395 37.1915132,8.89608553 37.7313158,8.86351974 L43.1303289,8.51023026 C45.9053289,8.33161184 50.0865789,8.06319079 52.3079605,7.26976974 C53.1684868,6.95990132 54.8204605,6.27799342 56.1980921,5.18161184 L57.0240789,4.52338816 L56.9984211,5.57930921 C56.9244079,8.65332237 55.1204605,11.5783224 51.4849342,14.5191118 C50.8701316,14.9345724 50.2957895,15.3677961 49.7441447,15.8335855 C49.5724342,15.9786513 49.47375,16.1651645 49.4678289,16.3615461 C49.4599342,16.5529934 49.5408553,16.7395066 49.6938158,16.8885197 C50.055,17.2418092 50.6944737,17.2822697 51.1217763,16.9812829 C51.7385526,16.5470724 52.2832895,16.1375329 52.7895395,15.7279934 C57.2293421,12.7812829 61.5329605,12.8730592 65.6984211,12.9579276 C69.2017105,13.0447697 72.8066447,13.1335855 75.4010526,10.8342434 L76.0721053,10.2391776 L76.2151974,11.124375 C77.5326316,19.2460855 75.3122368,25.9546382 69.2293421,32.2358882 C69.0931579,32.3760197 69.0911842,32.6227303 69.2224342,32.9730592 C69.3063158,33.1980592 69.7020395,33.4585855 70.0878947,33.5424671 C70.9543421,33.7694408 71.7773684,34.1395066 72.5510526,34.6487171 L73.7767105,35.4529934 L72.3142105,35.5536513 C68.7586184,35.7964145 65.1773684,36.8148355 61.9582895,38.4974013 C59.1882237,40.4039803 56.4290132,41.6641776 51.0744079,43.4622039 C34.2783553,49.1069408 19.5536842,48.5937829 10.6780263,42.0520066 C5.10138158,37.9457566 2.64611842,31.9309539 4.10960526,25.9625329 C5.82671053,18.9638487 12.4977632,13.5006908 22.4125658,10.9733882 L23.5257237,10.6852303 C25.5665132,10.1543092 26.4971053,9.91154605 29.4803289,9.59575658 C29.7773684,9.56417763 30.0388816,9.42898026 30.1997368,9.22371711 C30.2826316,9.11615132 30.3753947,8.94148026 30.3438158,8.71648026 C30.2855921,8.30891447 29.8513816,8.00398026 29.3609211,8.00398026 M29.5602632,49.9349013 C21.1938158,49.9349013 13.9957895,47.8891776 8.74480263,44.0207566 C2.31848684,39.286875 -0.505855263,32.3355592 1.19151316,25.4266776 C3.14348684,17.4697697 10.5714474,11.2970724 21.5698026,8.49345395 L22.6079605,8.22601974 C24.8836184,7.636875 25.9227632,7.36845395 29.1191447,7.03095395 C30.1938158,6.90858553 31.1836184,7.60233553 31.3207895,8.57832237 C31.3839474,9.02141447 31.2615789,9.46549342 30.9773684,9.830625 C30.6526974,10.2460855 30.1444737,10.5174671 29.5839474,10.5766776 C26.6747368,10.8845724 25.7658553,11.1224013 23.7744079,11.6404934 L22.6563158,11.9296382 C13.1056579,14.3641776 6.69513158,19.5638487 5.06782895,26.1974013 C3.70302632,31.7651645 6.01815789,37.3950987 11.2632237,41.2575987 C19.8783553,47.6049671 34.2744079,48.0687829 50.7605921,42.5256908 C56.0175,40.7612171 58.7155263,39.5316118 61.4500658,37.6526645 C64.3306579,36.1437829 67.4471053,35.1549671 70.5823026,34.7365461 C70.3434868,34.6447697 70.1017105,34.5658224 69.8569737,34.5016776 C69.2816447,34.3763487 68.5336184,33.9490461 68.29875,33.3184539 C67.9543421,32.3997039 68.2286842,31.8490461 68.5207895,31.5490461 C74.1566447,25.7286513 76.3444737,19.5362171 75.3655263,12.1210855 C72.5569737,14.1145066 68.9303289,14.0227303 65.6925,13.9457566 C61.6671711,13.8579276 57.5165132,13.7750329 53.3727632,16.5224013 C52.8872368,16.918125 52.3247368,17.3404934 51.6911842,17.7875329 C50.8819737,18.3608882 49.7026974,18.2770066 49.005,17.5960855 C48.6497368,17.2497039 48.4632237,16.7987171 48.4809868,16.3260197 C48.4977632,15.8474013 48.7217763,15.4052961 49.1076316,15.0786513 C49.6878947,14.5901645 50.2898684,14.1352303 50.8997368,13.7256908 C53.8355921,11.3483882 55.4925,9.00167763 55.9089474,6.60167763 C54.6615789,7.41088816 53.3786842,7.93391447 52.6405263,8.19838816 C50.2888816,9.03819079 46.02375,9.31253289 43.2003947,9.49411184 L37.7934868,9.84838816 C36.7178289,9.905625 35.7526974,9.16351974 35.6668421,8.21023026 C35.6283553,7.76615132 35.7714474,7.32898026 36.0714474,6.97766447 C36.4148684,6.57700658 36.9349342,6.324375 37.4984211,6.28588816 L42.9102632,5.93259868 C45.3319737,5.77865132 49.3839474,5.52009868 51.1671711,4.880625 C52.8971053,4.25990132 55.0533553,3.03424342 55.4352632,1.62207237 C55.6434868,0.854309211 56.4033553,0.295756579 57.2806579,0.262203947 C58.0898684,0.169440789 58.9444737,0.685559211 59.2444737,1.46615132 C60.4336184,4.61713816 60.1997368,7.72075658 58.5507237,10.7089145 C61.1214474,10.2756908 63.5668421,10.3279934 65.7507237,10.3753618 C70.6464474,10.4809539 73.0573026,10.3852303 74.6954605,7.05858553 C75.0536842,6.33424342 75.8451316,5.92273026 76.6918421,6.00463816 C77.5405263,6.07075658 78.2490789,6.62042763 78.4434868,7.37141447 C80.9668421,16.9309539 79.32375,24.7625329 73.2704605,31.9585855 C74.8326316,32.761875 76.2151974,33.9214145 77.2997368,35.3395066 C77.7448026,35.9227303 77.7665132,36.6875329 77.3559868,37.2895066 C76.9543421,37.8737171 76.2230921,38.2062829 75.4908553,38.1302961 C71.5040132,37.8381908 67.3000658,38.7214145 63.6536842,40.6171382 C60.3941447,42.8730592 56.9628947,44.2566118 52.1559868,45.8720724 C44.1369079,48.568125 36.5352632,49.9349013 29.5602632,49.9349013" id="Fill-5" fill="#009B63" mask="url(#mask-2)"></path>
            </g>
            <path d="M35.9060526,94.1844079 C34.9616447,94.1844079 34.1938816,94.9521711 34.1938816,95.8965789 C34.1938816,96.8409868 34.9616447,97.60875 35.9060526,97.60875 C36.8494737,97.60875 37.6182237,96.8409868 37.6182237,95.8965789 C37.6182237,94.9521711 36.8494737,94.1844079 35.9060526,94.1844079 M35.9060526,98.5620395 C34.4356579,98.5620395 33.2405921,97.3659868 33.2405921,95.8965789 C33.2405921,94.4271711 34.4356579,93.2311184 35.9060526,93.2311184 C37.3754605,93.2311184 38.5715132,94.4271711 38.5715132,95.8965789 C38.5715132,97.3659868 37.3754605,98.5620395 35.9060526,98.5620395" id="Fill-8" fill="#009B63"></path>
            <path d="M18.4136842,70.0867105 C18.2577632,70.0867105 18.1008553,70.0265132 17.9814474,69.9071053 L16.9758553,68.9025 C16.7370395,68.6636842 16.7370395,68.2758553 16.9758553,68.0370395 C17.2156579,67.7982237 17.6025,67.7982237 17.8413158,68.0370395 L18.8469079,69.0416447 C19.0857237,69.2804605 19.0857237,69.6682895 18.8469079,69.9071053 C18.7275,70.0265132 18.5705921,70.0867105 18.4136842,70.0867105" id="Fill-10" fill="#009B63"></path>
            <path d="M19.4959539,67.4866776 L18.0749013,67.4866776 C17.7364145,67.4866776 17.4630592,67.2123355 17.4630592,66.8748355 C17.4630592,66.5363487 17.7364145,66.2629934 18.0749013,66.2629934 L19.4959539,66.2629934 C19.8334539,66.2629934 20.1077961,66.5363487 20.1077961,66.8748355 C20.1077961,67.2123355 19.8334539,67.4866776 19.4959539,67.4866776" id="Fill-12" fill="#009B63"></path>
            <path d="M17.4176645,65.8877961 C17.2607566,65.8877961 17.1038487,65.8275987 16.9844408,65.7081908 C16.745625,65.469375 16.745625,65.0825329 16.9844408,64.8427303 L17.9900329,63.838125 C18.2288487,63.5993092 18.6156908,63.5993092 18.8554934,63.838125 C19.0943092,64.0769408 19.0943092,64.4647697 18.8554934,64.7035855 L17.8499013,65.7081908 C17.7304934,65.8275987 17.5735855,65.8877961 17.4176645,65.8877961" id="Fill-14" fill="#009B63"></path>
            <path d="M15.8222368,65.221875 C15.4847368,65.221875 15.2103947,64.9485197 15.2103947,64.6100329 L15.2103947,63.1889803 C15.2103947,62.8504934 15.4847368,62.5771382 15.8222368,62.5771382 C16.1607237,62.5771382 16.4340789,62.8504934 16.4340789,63.1889803 L16.4340789,64.6100329 C16.4340789,64.9485197 16.1607237,65.221875 15.8222368,65.221875" id="Fill-16" fill="#009B63"></path>
            <path d="M14.2234539,65.8792105 C14.0675329,65.8792105 13.910625,65.8190132 13.7912171,65.6996053 L12.785625,64.695 C12.5468092,64.4561842 12.5468092,64.0683553 12.785625,63.8295395 C13.0254276,63.5907237 13.4122697,63.5907237 13.6510855,63.8295395 L14.6566776,64.8351316 C14.8954934,65.0739474 14.8954934,65.4607895 14.6566776,65.6996053 C14.5372697,65.8190132 14.3803618,65.8792105 14.2234539,65.8792105" id="Fill-18" fill="#009B63"></path>
            <path d="M13.5580263,67.4736513 L12.1359868,67.4736513 C11.7984868,67.4736513 11.5241447,67.2002961 11.5241447,66.8618092 C11.5241447,66.5243092 11.7984868,66.2499671 12.1359868,66.2499671 L13.5580263,66.2499671 C13.8955263,66.2499671 14.1698684,66.5243092 14.1698684,66.8618092 C14.1698684,67.2002961 13.8955263,67.4736513 13.5580263,67.4736513" id="Fill-20" fill="#009B63"></path>
            <path d="M13.2095724,70.0780263 C13.0526645,70.0780263 12.8967434,70.0178289 12.7783224,69.8984211 C12.5375329,69.6596053 12.5375329,69.2717763 12.7783224,69.0329605 L13.7819408,68.0283553 C14.0207566,67.7895395 14.4085855,67.7895395 14.6474013,68.0283553 C14.8862171,68.2671711 14.8862171,68.655 14.6474013,68.8938158 L13.6418092,69.8984211 C13.5224013,70.0178289 13.3664803,70.0780263 13.2095724,70.0780263" id="Fill-22" fill="#009B63"></path>
            <path d="M15.8101974,71.1598026 C15.4717105,71.1598026 15.1983553,70.8864474 15.1983553,70.5479605 L15.1983553,69.1269079 C15.1983553,68.7894079 15.4717105,68.5150658 15.8101974,68.5150658 C16.1476974,68.5150658 16.4220395,68.7894079 16.4220395,69.1269079 L16.4220395,70.5479605 C16.4220395,70.8864474 16.1476974,71.1598026 15.8101974,71.1598026" id="Fill-24" fill="#009B63"></path>
            <path d="M18.4136842,70.0867105 C18.2577632,70.0867105 18.1008553,70.0265132 17.9814474,69.9071053 L16.9758553,68.9025 C16.7370395,68.6636842 16.7370395,68.2758553 16.9758553,68.0370395 C17.2156579,67.7982237 17.6025,67.7982237 17.8413158,68.0370395 L18.8469079,69.0416447 C19.0857237,69.2804605 19.0857237,69.6682895 18.8469079,69.9071053 C18.7275,70.0265132 18.5705921,70.0867105 18.4136842,70.0867105" id="Fill-26" fill="#009B63"></path>
            <path d="M19.4959539,67.4866776 L18.0749013,67.4866776 C17.7364145,67.4866776 17.4630592,67.2123355 17.4630592,66.8748355 C17.4630592,66.5363487 17.7364145,66.2629934 18.0749013,66.2629934 L19.4959539,66.2629934 C19.8334539,66.2629934 20.1077961,66.5363487 20.1077961,66.8748355 C20.1077961,67.2123355 19.8334539,67.4866776 19.4959539,67.4866776" id="Fill-28" fill="#009B63"></path>
            <path d="M17.4176645,65.8877961 C17.2607566,65.8877961 17.1038487,65.8275987 16.9844408,65.7081908 C16.745625,65.469375 16.745625,65.0825329 16.9844408,64.8427303 L17.9900329,63.838125 C18.2288487,63.5993092 18.6156908,63.5993092 18.8554934,63.838125 C19.0943092,64.0769408 19.0943092,64.4647697 18.8554934,64.7035855 L17.8499013,65.7081908 C17.7304934,65.8275987 17.5735855,65.8877961 17.4176645,65.8877961" id="Fill-30" fill="#009B63"></path>
            <path d="M15.8222368,65.221875 C15.4847368,65.221875 15.2103947,64.9485197 15.2103947,64.6100329 L15.2103947,63.1889803 C15.2103947,62.8504934 15.4847368,62.5771382 15.8222368,62.5771382 C16.1607237,62.5771382 16.4340789,62.8504934 16.4340789,63.1889803 L16.4340789,64.6100329 C16.4340789,64.9485197 16.1607237,65.221875 15.8222368,65.221875" id="Fill-32" fill="#009B63"></path>
            <path d="M25.4998026,38.0480921 C25.1475,38.0480921 24.7951974,37.9138816 24.5257895,37.6444737 C23.9879605,37.1066447 23.9879605,36.2342763 24.5257895,35.6964474 L26.7886184,33.4336184 C27.3264474,32.8957895 28.1988158,32.8957895 28.7366447,33.4336184 C29.2754605,33.9714474 29.2754605,34.8438158 28.7366447,35.3816447 L26.4738158,37.6444737 C26.2053947,37.9138816 25.8521053,38.0480921 25.4998026,38.0480921" id="Fill-34" fill="#009B63"></path>
            <path d="M32.1860526,31.3623355 C31.83375,31.3623355 31.4814474,31.228125 31.2120395,30.9597039 C30.6742105,30.4208882 30.6742105,29.5495066 31.2120395,29.0106908 L33.4748684,26.7478618 C34.0126974,26.2100329 34.8850658,26.2100329 35.4228947,26.7478618 C35.9607237,27.2866776 35.9607237,28.1580592 35.4228947,28.696875 L33.1600658,30.9597039 C32.8916447,31.228125 32.5383553,31.3623355 32.1860526,31.3623355" id="Fill-36" fill="#009B63"></path>
            <path d="M27.7626316,31.3623355 C27.4103289,31.3623355 27.0580263,31.228125 26.7886184,30.9597039 L24.5257895,28.696875 C23.9879605,28.1580592 23.9879605,27.2866776 24.5257895,26.7478618 C25.0636184,26.2100329 25.9359868,26.2100329 26.4738158,26.7478618 L28.7366447,29.0106908 C29.2754605,29.5495066 29.2754605,30.4208882 28.7366447,30.9597039 C28.4682237,31.228125 28.1149342,31.3623355 27.7626316,31.3623355" id="Fill-38" fill="#009B63"></path>
            <path d="M34.4488816,38.0480921 C34.0965789,38.0480921 33.7442763,37.9138816 33.4748684,37.6444737 L31.2120395,35.3816447 C30.6742105,34.8438158 30.6742105,33.9714474 31.2120395,33.4336184 C31.7498684,32.8957895 32.6222368,32.8957895 33.1600658,33.4336184 L35.4228947,35.6964474 C35.9607237,36.2342763 35.9607237,37.1066447 35.4228947,37.6444737 C35.1544737,37.9138816 34.8011842,38.0480921 34.4488816,38.0480921" id="Fill-40" fill="#009B63"></path>
            <path d="M155.852664,34.4047697 C154.17602,35.371875 152.023717,34.7945724 151.057599,33.1169408 C150.089507,31.4402961 150.667796,29.2889803 152.344441,28.3208882 C152.897072,28.003125 153.525691,27.8402961 154.159243,27.8521382 C154.506612,27.8580592 154.781941,28.1442434 154.775033,28.490625 C154.769112,28.8370066 154.482928,29.1133224 154.137533,29.1074013 C153.729967,29.0995066 153.326349,29.2041118 152.972072,29.409375 C151.894441,30.0300987 151.523388,31.4126645 152.144112,32.4902961 C152.765822,33.5679276 154.147401,33.9389803 155.225033,33.3172697 C156.302664,32.6965461 156.673717,31.3139803 156.052993,30.2363487 C155.879309,29.9363487 155.982928,29.5524671 156.283914,29.3787829 C156.582928,29.2060855 156.966809,29.3087171 157.14148,29.6087171 C158.107599,31.2863487 157.529309,33.4376645 155.852664,34.4047697" id="Fill-42" fill="#009B63"></path>
            <path d="M154.098651,68.9639803 C154.098651,68.3610197 154.587138,67.8725329 155.189112,67.8725329 L165.213454,67.8725329 C165.816414,67.8725329 166.303914,68.3610197 166.303914,68.9639803 C166.303914,69.5659539 165.816414,70.0544408 165.213454,70.0544408 L155.189112,70.0544408 C154.587138,70.0544408 154.098651,69.5659539 154.098651,68.9639803" id="Fill-44" fill="#009B63"></path>
            <path d="M159.110921,73.9748684 L159.110921,63.9515132 C159.110921,63.3485526 159.598421,62.8610526 160.201382,62.8610526 C160.804342,62.8610526 161.292829,63.3485526 161.292829,63.9515132 L161.292829,73.9748684 C161.292829,74.5778289 160.804342,75.0663158 160.201382,75.0663158 C159.598421,75.0663158 159.110921,74.5778289 159.110921,73.9748684" id="Fill-46" fill="#009B63"></path>
            <path d="M137.842796,96.4573026 C137.725362,96.3398684 137.654309,96.1780263 137.654309,95.9994079 C137.654309,95.6401974 137.944441,95.3500658 138.302664,95.3500658 L139.809572,95.3500658 C140.167796,95.3500658 140.457928,95.6401974 140.457928,95.9994079 C140.457928,96.3576316 140.167796,96.6477632 139.809572,96.6477632 L138.302664,96.6477632 C138.123059,96.6477632 137.96023,96.5747368 137.842796,96.4573026" id="Fill-48" fill="#009B63"></path>
            <path d="M142.297007,96.4573026 C142.179572,96.3398684 142.107533,96.1780263 142.107533,95.9994079 C142.107533,95.6401974 142.397664,95.3500658 142.755888,95.3500658 L144.261809,95.3500658 C144.62102,95.3500658 144.911151,95.6401974 144.911151,95.9994079 C144.911151,96.3576316 144.62102,96.6477632 144.261809,96.6477632 L142.755888,96.6477632 C142.576283,96.6477632 142.413454,96.5747368 142.297007,96.4573026" id="Fill-50" fill="#009B63"></path>
            <path d="M140.823553,94.9847368 C140.707105,94.8673026 140.634079,94.7044737 140.634079,94.5258553 L140.634079,93.0179605 C140.634079,92.6597368 140.924211,92.3696053 141.282434,92.3696053 C141.640658,92.3696053 141.931776,92.6597368 141.931776,93.0179605 L141.931776,94.5258553 C141.931776,94.8840789 141.640658,95.1742105 141.282434,95.1742105 C141.103816,95.1742105 140.940987,95.1021711 140.823553,94.9847368" id="Fill-52" fill="#009B63"></path>
            <path d="M140.823553,99.4385526 C140.707105,99.3211184 140.634079,99.1582895 140.634079,98.9796711 L140.634079,97.4717763 C140.634079,97.1135526 140.924211,96.8234211 141.282434,96.8234211 C141.640658,96.8234211 141.931776,97.1135526 141.931776,97.4717763 L141.931776,98.9796711 C141.931776,99.3378947 141.640658,99.6280263 141.282434,99.6280263 C141.103816,99.6280263 140.940987,99.5559868 140.823553,99.4385526" id="Fill-54" fill="#009B63"></path>
            <path d="M142.409803,52.3317434 C142.409803,52.9544408 141.904539,53.4597039 141.281842,53.4597039 C140.660132,53.4597039 140.155855,52.9544408 140.155855,52.3317434 C140.155855,51.7090461 140.660132,51.2047697 141.281842,51.2047697 C141.904539,51.2047697 142.409803,51.7090461 142.409803,52.3317434" id="Fill-56" fill="#009B63"></path>
            <path d="M79.2875329,67.7015132 C79.2875329,69.6001974 77.7470724,71.1406579 75.8474013,71.1406579 C73.9467434,71.1406579 72.4072697,69.6001974 72.4072697,67.7015132 C72.4072697,65.8018421 73.9467434,64.2613816 75.8474013,64.2613816 C77.7470724,64.2613816 79.2875329,65.8018421 79.2875329,67.7015132" id="Fill-58" fill="#009B63"></path>
            <path d="M101.867368,67.7015132 C101.867368,69.6001974 103.408816,71.1406579 105.3075,71.1406579 C107.208158,71.1406579 108.748618,69.6001974 108.748618,67.7015132 C108.748618,65.8018421 107.208158,64.2613816 105.3075,64.2613816 C103.408816,64.2613816 101.867368,65.8018421 101.867368,67.7015132" id="Fill-60" fill="#009B63"></path>
            <path d="M53.6248026,58.6417105 C53.1639474,58.6782237 52.7050658,58.4048684 52.4968421,57.9213158 C51.7320395,56.1440132 51.0698684,54.3015789 50.5261184,52.4413816 C48.8928947,46.8499342 48.8021053,42.0736184 50.2576974,38.2456579 C51.1053947,36.0163816 52.4859868,34.0683553 54.2504605,32.6088158 C54.7478289,32.2002632 55.4652632,32.3048684 55.8501316,32.8486184 C56.235,33.3913816 56.1461842,34.1650658 55.6488158,34.5765789 C54.1971711,35.7755921 53.0623026,37.3772368 52.3646053,39.2078289 C51.1172368,42.4910526 51.22875,46.7019079 52.6971711,51.7259211 C53.2103289,53.4815132 53.8379605,55.2242763 54.5603289,56.9019079 C54.8257895,57.5226316 54.5820395,58.2538816 54.0126316,58.5351316 C53.8863158,58.5973026 53.7550658,58.6318421 53.6248026,58.6417105" id="Fill-62" fill="#009B63"></path>
            <path d="M54.9360197,32.8531579 C54.8027961,32.8531579 54.6725329,32.9005263 54.5639803,32.9903289 C52.865625,34.3946053 51.5363487,36.2725658 50.7192434,38.4209211 C49.303125,42.14625 49.3978618,46.8159868 51.0004934,52.3028289 C51.5383224,54.1452632 52.1945724,55.9699342 52.9504934,57.7265132 C53.0679276,57.9998684 53.3284539,58.1696053 53.5860197,58.1498684 L53.5870066,58.1498684 C53.6580592,58.1439474 53.728125,58.1242105 53.7952303,58.0916447 C54.1248355,57.9288158 54.2679276,57.4728947 54.1070724,57.0959211 C53.3748355,55.3955921 52.7412829,53.6350658 52.2231908,51.8636842 C50.7241776,46.7350658 50.6175987,42.4176316 51.9034539,39.0317763 C52.6327303,37.1202632 53.8189145,35.4475658 55.3347039,34.1952632 C55.6307566,33.9515132 55.6820724,33.465 55.4481908,33.1344079 C55.3386513,32.9784868 55.1837171,32.8817763 55.0120066,32.8580921 C54.9863487,32.8551316 54.9616776,32.8531579 54.9360197,32.8531579 M53.5435855,59.1386842 C52.9050987,59.1386842 52.3129934,58.7390132 52.0435855,58.1173026 C51.271875,56.3232237 50.6018092,54.4600658 50.053125,52.5791447 C48.3883224,46.8821053 48.3024671,42.0011842 49.7965461,38.0705921 C50.6748355,35.7623684 52.1057566,33.7423026 53.9363487,32.2284868 C54.2807566,31.9452632 54.7090461,31.8238816 55.1442434,31.8801316 C55.5902961,31.9403289 55.9840461,32.1830921 56.2524671,32.5640132 C56.7833882,33.3110526 56.6541118,34.3847368 55.9643092,34.9561184 C54.5787829,36.0998684 53.4942434,37.6304605 52.8261513,39.3830921 C51.6172697,42.5626974 51.7337171,46.6689474 53.1705592,51.5873684 C53.6777961,53.3202632 54.2975329,55.0423026 55.0139803,56.7061184 C55.3810855,57.5656579 55.0297697,58.5830921 54.2314145,58.9768421 C54.0518092,59.0656579 53.8603618,59.1179605 53.6629934,59.13375 C53.6225329,59.1367105 53.5830592,59.1386842 53.5435855,59.1386842" id="Fill-64" fill="#009B63"></path>
            <path d="M125.311579,58.7992105 C125.161579,58.7992105 125.008618,58.7784868 124.858618,58.7350658 C124.082961,58.5090789 123.655658,57.7561184 123.905329,57.0534868 C125.537566,52.4765132 125.964868,47.5452632 125.135921,42.7946053 C124.974079,41.8590789 124.718487,40.6492105 124.181645,39.5863816 C123.845132,38.9153289 124.17375,38.1228947 124.913882,37.8169737 C125.659934,37.5140132 126.534276,37.8080921 126.870789,38.4771711 C127.555658,39.8350658 127.863553,41.2768421 128.055,42.3801316 C128.953026,47.5423026 128.490197,52.8988816 126.717829,57.8745395 C126.515526,58.44 125.93625,58.7992105 125.311579,58.7992105" id="Fill-66" fill="#009B63"></path>
            <g id="Group-70" transform="translate(103.618421, 270.143092)">
                <mask id="mask-4" fill="white">
                    <use xlink:href="#path-3"></use>
                </mask>
                <g id="Clip-69"></g>
                <path d="M66.4585855,3.54434211 L69.418125,3.02230263 C70.0102303,2.91671053 70.5381908,2.91177632 71.0010197,3.0075 C71.4628618,3.10223684 71.8654934,3.32131579 72.2059539,3.66868421 C72.4112171,3.86802632 72.5700987,4.11375 72.6845724,4.40585526 C72.7980592,4.69894737 72.8839145,5.04434211 72.9401645,5.44105263 C72.9974013,5.83776316 73.0309539,6.28776316 73.0427961,6.79598684 C73.0546382,7.30223684 73.0595724,7.86473684 73.0595724,8.4825 C73.0595724,9.10026316 73.0546382,9.66473684 73.0427961,10.1749342 C73.0309539,10.6851316 72.9974013,11.1499342 72.9401645,11.5663816 C72.8839145,11.9838158 72.7980592,12.3578289 72.6845724,12.6913816 C72.5700987,13.0229605 72.4112171,13.3259211 72.2059539,13.5973026 C71.8654934,14.0640789 71.4628618,14.4252632 71.0010197,14.6838158 C70.5381908,14.9413816 70.0102303,15.1219737 69.418125,15.2265789 L66.4585855,15.7486184 L66.4585855,3.54434211 Z M64.0467434,2.66605263 C64.0151645,2.88315789 64.0003618,3.08546053 64.0003618,3.27394737 L64.0003618,16.8864474 C64.0003618,17.0739474 64.0151645,17.2713158 64.0467434,17.4765789 C64.0763487,17.6828289 64.1779934,17.8604605 64.3526645,18.0094737 C64.5273355,18.1584868 64.7168092,18.2305263 64.9220724,18.2255921 C65.1273355,18.2206579 65.3217434,18.2028947 65.5023355,18.1693421 L69.7023355,17.4292105 C70.7266776,17.2496053 71.6128618,16.9229605 72.3599013,16.45125 C73.1069408,15.9785526 73.7552961,15.3341447 74.3000329,14.5190132 C74.5812829,14.0926974 74.8023355,13.6575 74.9661513,13.2104605 C75.1289803,12.7624342 75.2523355,12.2798684 75.3362171,11.7598026 C75.4191118,11.2407237 75.4704276,10.6782237 75.4891776,10.0713158 C75.5079276,9.46638158 75.5187829,8.79138158 75.5187829,8.04828947 C75.5187829,7.30618421 75.5079276,6.63513158 75.4891776,6.03414474 C75.4704276,5.43611842 75.4230592,4.89532895 75.3470724,4.41177632 C75.2720724,3.92822368 75.1526645,3.49105263 74.9898355,3.10223684 C74.8260197,2.71243421 74.6039803,2.35421053 74.3237171,2.02855263 C73.7770066,1.41276316 73.1256908,0.995328947 72.3707566,0.775263158 C71.6168092,0.557171053 70.7266776,0.538421053 69.7023355,0.719013158 L65.5023355,1.45914474 C65.3217434,1.49171053 65.1273355,1.54203947 64.9220724,1.60914474 C64.7168092,1.67526316 64.5273355,1.81539474 64.3526645,2.02559211 C64.1779934,2.23677632 64.0763487,2.45092105 64.0467434,2.66605263 L64.0467434,2.66605263 Z M55.1572697,5.53677632 C55.5668092,5.46375 55.9408224,5.45881579 56.2793092,5.52098684 C56.6158224,5.58217105 56.9059539,5.70453947 57.1487171,5.89006579 C57.3914803,6.07361842 57.5789803,6.31835526 57.7131908,6.62328947 C57.8444408,6.92921053 57.9115461,7.28842105 57.9115461,7.70388158 C57.9115461,8.11835526 57.8444408,8.49730263 57.7131908,8.84171053 C57.5789803,9.18611842 57.3914803,9.49006579 57.1487171,9.75651316 C56.9059539,10.0209868 56.6158224,10.2440132 56.2793092,10.4206579 C55.9408224,10.5963158 55.5668092,10.7206579 55.1572697,10.7946711 L51.5148355,11.4361184 L51.5148355,6.17921053 L55.1572697,5.53677632 Z M49.6487171,20.9009211 C49.8302961,20.9749342 50.0424671,20.9907237 50.2862171,20.9473026 C50.5289803,20.9048684 50.7411513,20.8140789 50.9227303,20.6759211 C51.1052961,20.53875 51.2414803,20.3759211 51.3332566,20.1864474 C51.3796382,20.1005921 51.4122039,20.0186842 51.4349013,19.9397368 C51.4585855,19.8627632 51.4753618,19.7808553 51.4862171,19.6969737 C51.4980592,19.6130921 51.5059539,19.5163816 51.5099013,19.4048684 C51.5128618,19.2953289 51.5148355,19.1621053 51.5148355,19.0051974 L51.5148355,13.5953289 L54.5888487,13.0535526 L57.9677961,18.5601316 C58.0447697,18.6953289 58.1227303,18.8186842 58.2016776,18.9301974 C58.2816118,19.0407237 58.3684539,19.1354605 58.4631908,19.2124342 C58.5579276,19.2894079 58.6654934,19.3426974 58.7829276,19.3732895 C58.899375,19.4019079 59.0355592,19.4038816 59.1855592,19.3782237 C59.2921382,19.3584868 59.4036513,19.3259211 59.5161513,19.2775658 C59.6296382,19.2311842 59.7401645,19.1670395 59.8457566,19.0861184 C60.0599013,18.9153947 60.2138487,18.7318421 60.3125329,18.5325 C60.4112171,18.3361184 60.4566118,18.1367763 60.4497039,17.9344737 C60.4418092,17.7795395 60.4112171,17.6354605 60.3579276,17.5042105 C60.305625,17.3739474 60.2059539,17.1913816 60.0638487,16.9584868 L57.1605592,12.2473026 C57.6154934,12.0351316 58.0378618,11.7667105 58.4296382,11.4440132 C58.8194408,11.1203289 59.1599013,10.7473026 59.4480592,10.3249342 C59.7362171,9.90157895 59.9622039,9.43282895 60.1250329,8.91375 C60.2878618,8.39763158 60.3697697,7.84105263 60.3697697,7.24598684 C60.3697697,6.53348684 60.2523355,5.90190789 60.0174671,5.34927632 C59.7816118,4.79565789 59.4470724,4.34072368 59.0099013,3.9825 C58.5727303,3.62625 58.0447697,3.38151316 57.4230592,3.24828947 C56.799375,3.11407895 56.105625,3.11506579 55.3388487,3.25125 L50.5595724,4.095 C50.3770066,4.12657895 50.1835855,4.17690789 49.9783224,4.24401316 C49.7740461,4.31013158 49.5835855,4.45026316 49.4108882,4.66144737 C49.2352303,4.87164474 49.1325987,5.08578947 49.1020066,5.30092105 C49.0714145,5.51901316 49.0566118,5.72032895 49.0566118,5.90881579 L49.0566118,19.4384211 C49.0566118,19.5953289 49.0585855,19.7275658 49.0625329,19.8371053 C49.0664803,19.9456579 49.0733882,20.0403947 49.0862171,20.1203289 C49.0960855,20.2002632 49.1138487,20.27625 49.1365461,20.3453289 C49.1602303,20.4163816 49.1927961,20.4864474 49.2401645,20.5555263 C49.3309539,20.7124342 49.4661513,20.8278947 49.6487171,20.9009211 L49.6487171,20.9009211 Z M43.2184539,18.7426974 L44.0276645,20.8417105 C44.1322697,21.1051974 44.2200987,21.2966447 44.2881908,21.4170395 C44.3572697,21.5384211 44.4480592,21.6361184 44.5625329,21.7101316 C44.7599013,21.8394079 44.9829276,21.8828289 45.2325987,21.8384211 C45.4072697,21.8078289 45.5740461,21.7436842 45.7339145,21.6499342 C45.8927961,21.5561842 46.0260197,21.4407237 46.1316118,21.3045395 C46.2470724,21.1594737 46.3260197,21.0183553 46.3724013,20.8801974 C46.4168092,20.7440132 46.4375329,20.6068421 46.4335855,20.4696711 C46.4296382,20.3344737 46.4079276,20.1963158 46.3664803,20.0532237 C46.3250329,19.9130921 46.2727303,19.7650658 46.2115461,19.6121053 L41.2497039,6.86210526 C41.1658224,6.63513158 41.0878618,6.46638158 41.0158224,6.35782895 C40.9447697,6.24927632 40.8599013,6.15651316 40.7602303,6.07953947 C40.6388487,5.98480263 40.5075987,5.91967105 40.3684539,5.88611842 C40.2273355,5.85157895 40.0585855,5.85256579 39.8612171,5.88710526 C39.6648355,5.92164474 39.4950987,5.98085526 39.3549671,6.06473684 C39.2148355,6.14763158 39.0845724,6.25914474 38.9631908,6.39730263 C38.8635197,6.50881579 38.7776645,6.63118421 38.705625,6.76539474 C38.6345724,6.89861842 38.5566118,7.095 38.4737171,7.35157895 L33.5099013,21.8522368 C33.4506908,22.0269079 33.3983882,22.1917105 33.3569408,22.3486184 C33.3145066,22.5045395 33.2927961,22.6505921 33.2888487,22.78875 C33.2849013,22.9259211 33.305625,23.0551974 33.3510197,23.1765789 C33.3964145,23.2979605 33.4763487,23.4104605 33.5898355,23.5150658 C33.6974013,23.6147368 33.8296382,23.6828289 33.9895066,23.7203289 C34.1474013,23.7588158 34.3141776,23.7627632 34.4888487,23.7331579 C34.7395066,23.68875 34.9635197,23.5673684 35.1608882,23.3680263 C35.274375,23.2545395 35.3651645,23.1242763 35.4342434,22.9782237 C35.5023355,22.8341447 35.5901645,22.6111184 35.6957566,22.3111184 L36.5039803,19.9278947 L43.2184539,18.7426974 Z M42.455625,16.7186842 L37.2658224,17.6325 L39.8612171,9.86407895 L42.455625,16.7186842 Z M22.4247039,9.27789474 C22.3260197,9.39730263 22.2470724,9.52657895 22.186875,9.66671053 C22.1247039,9.80684211 22.0654934,9.9825 22.0043092,10.1976316 L19.0447697,21.645 L16.449375,11.3532237 C16.3812829,11.0828289 16.3230592,10.8834868 16.2737171,10.7561842 C16.2253618,10.6278947 16.1474013,10.5134211 16.0398355,10.4157237 C15.9490461,10.3298684 15.8375329,10.2686842 15.7043092,10.2331579 C15.5720724,10.1996053 15.4220724,10.1966447 15.2552961,10.2252632 C14.9898355,10.2716447 14.7490461,10.3920395 14.5319408,10.5874342 C14.3158224,10.7828289 14.1776645,11.0028947 14.1164803,11.2476316 C14.0789803,11.3956579 14.0691118,11.5426974 14.0888487,11.6926974 C14.1066118,11.8417105 14.1510197,12.0519079 14.2191118,12.3213158 L17.4983882,25.3091447 C17.5575987,25.5242763 17.630625,25.7196711 17.7135197,25.8923684 C17.7964145,26.0650658 17.9148355,26.2051974 18.0658224,26.3107895 C18.3164803,26.4775658 18.6095724,26.5328289 18.943125,26.4736184 C19.2756908,26.4153947 19.5687829,26.2584868 19.8184539,26.0028947 C19.9714145,25.8430263 20.0888487,25.6614474 20.1727303,25.4591447 C20.255625,25.2568421 20.3266776,25.0357895 20.3878618,24.7989474 L23.2674671,13.7068421 L26.1470724,23.7834868 C26.2072697,24.0005921 26.2793092,24.195 26.3631908,24.3676974 C26.4460855,24.5394079 26.5635197,24.6805263 26.7164803,24.7851316 C26.9661513,24.9528947 27.2582566,25.0081579 27.5918092,24.9479605 C27.9263487,24.8897368 28.2184539,24.7328289 28.468125,24.4772368 C28.6200987,24.3183553 28.7375329,24.1367763 28.8214145,23.9344737 C28.9043092,23.7321711 28.9773355,23.5111184 29.0375329,23.2742763 L32.3158224,9.12986842 C32.3849013,8.83578947 32.4283224,8.61177632 32.4460855,8.45585526 C32.4658224,8.29894737 32.4559539,8.15486842 32.4174671,8.02065789 C32.3572697,7.79664474 32.2191118,7.62592105 32.0020066,7.5075 C31.7858882,7.38907895 31.5450987,7.35256579 31.280625,7.39993421 C31.1138487,7.42953947 30.9628618,7.48578947 30.8296382,7.56769737 C30.6983882,7.64960526 30.5858882,7.74927632 30.4950987,7.86671053 C30.3875329,8.00289474 30.3105592,8.14401316 30.2612171,8.29006579 C30.2128618,8.43513158 30.1526645,8.65519737 30.0855592,8.94828947 L27.4911513,20.1558553 L24.5316118,9.75157895 C24.4694408,9.55914474 24.4102303,9.40322368 24.3480592,9.28480263 C24.2888487,9.16638158 24.2089145,9.06572368 24.1092434,8.98085526 C23.9049671,8.81407895 23.6247039,8.76177632 23.2674671,8.82493421 C22.9102303,8.88710526 22.6299671,9.03809211 22.4247039,9.27789474 L22.4247039,9.27789474 Z M10.0309539,24.5956579 L10.8401645,26.6946711 C10.9457566,26.9571711 11.0325987,27.1486184 11.1006908,27.27 C11.1697697,27.3913816 11.2605592,27.4880921 11.3750329,27.5621053 C11.5714145,27.6913816 11.7954276,27.7348026 12.0460855,27.6903947 C12.2197697,27.6598026 12.3875329,27.5966447 12.5464145,27.5009211 C12.7052961,27.4081579 12.8385197,27.2917105 12.9450987,27.1565132 C13.0595724,27.0104605 13.1395066,26.8693421 13.1849013,26.7321711 C13.2302961,26.5940132 13.2500329,26.4588158 13.2460855,26.3226316 C13.2421382,26.1854605 13.2204276,26.0473026 13.1779934,25.9061842 C13.1365461,25.7650658 13.0852303,25.6180263 13.0250329,25.4640789 L8.06220395,12.7140789 C7.97832237,12.4871053 7.90134868,12.3183553 7.82930921,12.2088158 C7.75726974,12.10125 7.67240132,12.0084868 7.57273026,11.9325 C7.45134868,11.8357895 7.32009868,11.7716447 7.18095395,11.7371053 C7.03983553,11.7035526 6.87108553,11.7045395 6.67371711,11.7390789 C6.47634868,11.7736184 6.30759868,11.8318421 6.16746711,11.9147368 C6.02733553,11.9986184 5.89608553,12.1111184 5.77470395,12.2482895 C5.67601974,12.3607895 5.59016447,12.4831579 5.518125,12.6163816 C5.44608553,12.7515789 5.36911184,12.9459868 5.28621711,13.2045395 L0.323388158,27.7022368 C0.262203947,27.8788816 0.210888158,28.0446711 0.169440789,28.1986184 C0.127006579,28.3565132 0.105296053,28.5025658 0.101348684,28.6407237 C0.0974013158,28.7769079 0.118125,28.9071711 0.163519737,29.0285526 C0.208914474,29.1489474 0.288848684,29.2624342 0.402335526,29.3680263 C0.508914474,29.4667105 0.642138158,29.5348026 0.801019737,29.5732895 C0.959901316,29.6117763 1.12667763,29.6157237 1.30233553,29.5851316 C1.55299342,29.5407237 1.77601974,29.4193421 1.97338816,29.22 C2.08786184,29.1045395 2.17766447,28.97625 2.24773026,28.8311842 C2.31483553,28.6861184 2.40167763,28.4640789 2.50825658,28.1621053 L3.31746711,25.7778947 L10.0309539,24.5956579 Z M9.268125,22.5696711 L4.07832237,23.4854605 L6.67371711,15.7170395 L9.268125,22.5696711 Z" id="Fill-68" fill="#1D1D1B" mask="url(#mask-4)"></path>
            </g>
            <g id="Group-73" transform="translate(103.618421, 238.564145)">
                <mask id="mask-6" fill="white">
                    <use xlink:href="#path-5"></use>
                </mask>
                <g id="Clip-72"></g>
                <path d="M86.2465461,15.7565132 C85.9455592,15.7703289 85.6574013,15.7584868 85.3800987,15.7209868 C85.1037829,15.6844737 84.834375,15.6213158 84.5728618,15.5344737 C84.3103618,15.4486184 84.0439145,15.3301974 83.7695724,15.1841447 C83.5504934,15.0657237 83.3600329,14.9897368 83.2011513,14.9551974 C83.0422697,14.9196711 82.8833882,14.9167105 82.7235197,14.9463158 C82.4432566,14.9956579 82.2024671,15.1397368 82.0060855,15.3775658 C81.9004934,15.5058553 81.8166118,15.6519079 81.7554276,15.8147368 C81.6952303,15.9775658 81.6646382,16.1305263 81.6646382,16.2706579 C81.6646382,16.4275658 81.6863487,16.5617763 81.7277961,16.67625 C81.7692434,16.7907237 81.8353618,16.8982895 81.9261513,16.9989474 C82.0179276,17.0996053 82.1353618,17.1953289 82.2784539,17.2831579 C82.4225329,17.3709868 82.6021382,17.4588158 82.8133224,17.5456579 C83.109375,17.6828289 83.4143092,17.7923684 83.7241776,17.8782237 C84.0360197,17.9640789 84.3666118,18.0242763 84.7139803,18.0568421 C85.0643092,18.0884211 85.4402961,18.0933553 85.8419408,18.0686842 C86.2435855,18.0440132 86.6876645,17.9907237 87.1731908,17.9048684 C88.0238487,17.7538816 88.8074013,17.5042105 89.5228618,17.1558553 C90.2412829,16.8055263 90.8560855,16.3752632 91.3672697,15.8621053 C91.8804276,15.3499342 92.2791118,14.7647368 92.5672697,14.1075 C92.8554276,13.4502632 93.0014803,12.7377632 93.0014803,11.9719737 C93.0014803,10.5232895 92.5603618,9.46046053 91.6810855,8.77855263 C91.5054276,8.64434211 91.3199013,8.53085526 91.1225329,8.43611842 C90.9251645,8.34138158 90.7080592,8.26736842 90.4672697,8.21111842 C90.2284539,8.15585526 89.9639803,8.11638158 89.671875,8.09269737 C89.3797697,8.07098684 89.0481908,8.06111842 88.6761513,8.06407895 L86.7399671,8.09960526 C86.2939145,8.10848684 85.9366776,8.07592105 85.6702303,8.00092105 C85.4047697,7.92592105 85.1699013,7.81342105 84.9646382,7.66243421 C84.7455592,7.51243421 84.590625,7.31013158 84.5037829,7.05651316 C84.4169408,6.80190789 84.3735197,6.52263158 84.3735197,6.21769737 C84.3735197,5.83282895 84.4366776,5.47263158 84.5620066,5.13315789 C84.6873355,4.79467105 84.8738487,4.48973684 85.1245066,4.21934211 C85.3741776,3.94796053 85.6830592,3.71605263 86.0472039,3.52263158 C86.4103618,3.32921053 86.8327303,3.19006579 87.309375,3.10618421 C87.5896382,3.05684211 87.8550987,3.02427632 88.1018092,3.0075 C88.3475329,2.99072368 88.584375,2.99565789 88.8123355,3.02328947 C89.0393092,3.04993421 89.2643092,3.09631579 89.4833882,3.16144737 C89.7044408,3.22953947 89.934375,3.31638158 90.1771382,3.42197368 C90.3439145,3.50190789 90.5185855,3.55914474 90.7021382,3.59368421 C90.8827303,3.62822368 91.0386513,3.63414474 91.1679276,3.61046053 C91.3347039,3.58184211 91.4797697,3.52263158 91.6011513,3.43480263 C91.7225329,3.34697368 91.828125,3.23940789 91.9189145,3.11407895 C92.1083882,2.85453947 92.203125,2.57822368 92.203125,2.29006579 C92.203125,2.01671053 92.1103618,1.78973684 91.9258224,1.61210526 C91.7383224,1.4325 91.5014803,1.29138158 91.2133224,1.18480263 C90.8787829,1.06342105 90.5639803,0.967697368 90.2689145,0.893684211 C89.9728618,0.821644737 89.6777961,0.771315789 89.3817434,0.745657895 C89.0856908,0.72 88.7777961,0.717039474 88.4590461,0.73875 C88.1412829,0.759473684 87.7879934,0.803881579 87.4011513,0.871973684 C86.5583882,1.02 85.8024671,1.27065789 85.1294408,1.62493421 C84.4583882,1.97723684 83.8889803,2.41046053 83.4231908,2.92263158 C82.9564145,3.43578947 82.6001645,4.01309211 82.3534539,4.65453947 C82.1067434,5.29598684 81.984375,5.98184211 81.984375,6.70914474 C81.984375,7.39697368 82.0800987,7.99105263 82.2745066,8.48842105 C82.4679276,8.98677632 82.7689145,9.39138158 83.1794408,9.70125 C83.5652961,10.0022368 84.0064145,10.2153947 84.5037829,10.3426974 C85.0011513,10.47 85.5794408,10.52625 86.2396382,10.5114474 L88.1629934,10.4542105 C88.5725329,10.4453289 88.9179276,10.47 89.1991776,10.5301974 C89.4794408,10.5903947 89.7222039,10.6959868 89.9274671,10.8459868 C90.1554276,11.0098026 90.3192434,11.2288816 90.4179276,11.5002632 C90.5146382,11.7726316 90.5639803,12.0963158 90.5639803,12.4723026 C90.5639803,13.30125 90.2768092,13.9900658 89.7004934,14.5367763 C89.1241776,15.0834868 88.2952303,15.4525658 87.2185855,15.6440132 C86.8702303,15.7042105 86.5455592,15.7417105 86.2465461,15.7565132 L86.2465461,15.7565132 Z M80.128125,2.83381579 C80.0363487,2.68677632 79.9159539,2.58217105 79.7639803,2.52394737 C79.6356908,2.47657895 79.5014803,2.45486842 79.3652961,2.45782895 C79.2291118,2.46276316 79.0287829,2.48940789 78.7623355,2.53578947 L70.2034539,4.04565789 C69.9379934,4.09203947 69.7376645,4.13743421 69.6004934,4.18085526 C69.4633224,4.22328947 69.3300987,4.29335526 69.2027961,4.38611842 C69.0498355,4.49960526 68.9284539,4.64565789 68.8376645,4.82625 C68.746875,5.00486842 68.7014803,5.20914474 68.7014803,5.43710526 C68.7014803,5.66309211 68.746875,5.85157895 68.8376645,5.99861842 C68.9284539,6.14763158 69.0498355,6.25125 69.2027961,6.31046053 C69.3300987,6.35881579 69.4633224,6.38052632 69.6004934,6.37559211 C69.7376645,6.36967105 69.9379934,6.345 70.2034539,6.29861842 L73.2547697,5.76078947 L73.2547697,18.5867763 C73.2547697,18.7426974 73.2557566,18.8759211 73.2597039,18.9844737 C73.2636513,19.0940132 73.2715461,19.18875 73.2814145,19.2686842 C73.2942434,19.3486184 73.3110197,19.4236184 73.3327303,19.4946711 C73.3554276,19.56375 73.3909539,19.6348026 73.4363487,19.7048684 C73.5261513,19.8607895 73.6643092,19.9752632 73.8458882,20.0492763 C74.0274671,20.1232895 74.240625,20.1371053 74.4824013,20.0946711 C74.7251645,20.0522368 74.9383224,19.9624342 75.1208882,19.8242763 C75.3014803,19.6861184 75.4396382,19.5232895 75.5304276,19.3357895 C75.5758224,19.2499342 75.6103618,19.1670395 75.6320724,19.0890789 C75.6557566,19.0111184 75.6715461,18.9292105 75.684375,18.8453289 C75.6952303,18.7614474 75.7021382,18.6627632 75.7060855,18.5532237 C75.7100329,18.4436842 75.7120066,18.3104605 75.7120066,18.1535526 L75.7120066,5.32756579 L78.7623355,4.78973684 C79.0287829,4.74236842 79.2291118,4.69697368 79.3652961,4.65355263 C79.5014803,4.61013158 79.6356908,4.54203947 79.7639803,4.44828947 C79.9159539,4.33578947 80.0363487,4.18776316 80.128125,4.00914474 C80.2199013,3.82855263 80.2643092,3.62526316 80.2643092,3.39828947 C80.2643092,3.17131579 80.2199013,2.98381579 80.128125,2.83381579 L80.128125,2.83381579 Z M56.2731908,11.4775658 L63.3074013,20.95125 C63.5491776,21.2838158 63.7761513,21.5236184 63.9893092,21.6696711 C64.2014803,21.8167105 64.453125,21.8630921 64.7402961,21.81375 C65.1044408,21.7476316 65.4162829,21.5611184 65.6738487,21.2482895 C65.8100329,21.0834868 65.9037829,20.8999342 65.953125,20.6956579 C66.0014803,20.4913816 66.0271382,20.2525658 66.0271382,19.9782237 L66.0271382,6.41309211 C66.0271382,6.25618421 66.0251645,6.12296053 66.0212171,6.01539474 C66.0162829,5.90585526 66.009375,5.81210526 65.9975329,5.73118421 C65.9876645,5.65125 65.9689145,5.57822368 65.9472039,5.51210526 C65.9235197,5.445 65.8899671,5.37296053 65.8445724,5.29401316 C65.7527961,5.13907895 65.6175987,5.02460526 65.4340461,4.95059211 C65.2534539,4.87756579 65.0412829,4.86177632 64.7985197,4.90421053 C64.5547697,4.94763158 64.3425987,5.03743421 64.1600329,5.17460526 C63.9784539,5.31276316 63.8422697,5.47657895 63.7504934,5.66309211 C63.7041118,5.75881579 63.6705592,5.84269737 63.6488487,5.91572368 C63.6251645,5.99072368 63.6083882,6.07065789 63.5975329,6.15453947 C63.5847039,6.23842105 63.5777961,6.33611842 63.5738487,6.44565789 C63.5699013,6.55717105 63.5689145,6.68940789 63.5689145,6.84631579 L63.5689145,16.9505921 L56.5356908,7.47592105 C56.2919408,7.14236842 56.0639803,6.90355263 55.8518092,6.7575 C55.6386513,6.61046053 55.3889803,6.56407895 55.0998355,6.61342105 C54.7356908,6.67855263 54.4258224,6.86703947 54.1672697,7.17789474 C54.0300987,7.34269737 53.9383224,7.52921053 53.8889803,7.73743421 C53.8386513,7.94565789 53.8149671,8.18743421 53.8149671,8.45980263 L53.8149671,22.0150658 C53.8149671,22.1709868 53.8169408,22.3042105 53.8208882,22.4127632 C53.8248355,22.5203289 53.8317434,22.6160526 53.8425987,22.6959868 C53.8554276,22.7759211 53.8712171,22.8509211 53.8949013,22.9219737 C53.9166118,22.9920395 53.9511513,23.0621053 53.9965461,23.1331579 C54.0873355,23.2890789 54.2245066,23.4035526 54.4060855,23.4775658 C54.5886513,23.5496053 54.8018092,23.5663816 55.0445724,23.5229605 C55.2873355,23.4805263 55.4995066,23.38875 55.6810855,23.2525658 C55.8636513,23.1144079 56.0008224,22.9515789 56.090625,22.7630921 C56.1360197,22.6772368 56.1705592,22.5953289 56.1942434,22.5163816 C56.2159539,22.4384211 56.2337171,22.3565132 56.2455592,22.2726316 C56.2554276,22.18875 56.2633224,22.0920395 56.2672697,21.9815132 C56.2712171,21.87 56.2731908,21.7377632 56.2731908,21.5798684 L56.2731908,11.4775658 Z M42.5817434,11.1686842 L49.0919408,10.0209868 C49.3564145,9.97460526 49.5577303,9.92921053 49.6958882,9.88578947 C49.8320724,9.84138158 49.9633224,9.77328947 50.0925987,9.68052632 C50.2455592,9.56703947 50.3669408,9.42098684 50.4567434,9.23940789 C50.5485197,9.05980263 50.5939145,8.85651316 50.5939145,8.62855263 C50.5939145,8.40256579 50.5485197,8.21407895 50.4567434,8.06703947 C50.3669408,7.91901316 50.2455592,7.81539474 50.0925987,7.75519737 C49.9633224,7.70782895 49.8320724,7.68513158 49.6958882,7.69105263 C49.5577303,7.69598684 49.3564145,7.71967105 49.0919408,7.76703947 L41.6254934,9.08348684 C41.4439145,9.11605263 41.2495066,9.16539474 41.0442434,9.23348684 C40.8399671,9.30157895 40.6514803,9.44072368 40.4758224,9.65092105 C40.3011513,9.86111842 40.1995066,10.0752632 40.1689145,10.2913816 C40.1383224,10.5084868 40.1235197,10.7107895 40.1235197,10.8982895 L40.1235197,24.5107895 C40.1235197,24.6992763 40.1383224,24.8956579 40.1689145,25.1019079 C40.1995066,25.3071711 40.3011513,25.4838158 40.4758224,25.6338158 C40.6514803,25.7838158 40.8399671,25.8548684 41.0442434,25.8509211 C41.2495066,25.8459868 41.4439145,25.8272368 41.6254934,25.7956579 L49.0919408,24.4792105 C49.3564145,24.4318421 49.5577303,24.3864474 49.6958882,24.3430263 C49.8320724,24.2996053 49.9633224,24.2315132 50.0925987,24.1377632 C50.2455592,24.0252632 50.3669408,23.8772368 50.4567434,23.6986184 C50.5485197,23.5170395 50.5939145,23.3147368 50.5939145,23.0877632 C50.5939145,22.8607895 50.5485197,22.6732895 50.4567434,22.5232895 C50.3669408,22.37625 50.2455592,22.2726316 50.0925987,22.2134211 C49.9633224,22.1660526 49.8320724,22.1443421 49.6958882,22.1482895 C49.5577303,22.1522368 49.3564145,22.1788816 49.0919408,22.2252632 L42.5817434,23.3739474 L42.5817434,18.32625 L47.9314145,17.3828289 C48.1958882,17.3374342 48.3972039,17.2920395 48.5333882,17.2486184 C48.6715461,17.2051974 48.8037829,17.1351316 48.9320724,17.0433553 C49.0850329,16.9298684 49.2064145,16.7838158 49.2972039,16.6022368 C49.3870066,16.4236184 49.4324013,16.2193421 49.4324013,15.9913816 C49.4324013,15.7663816 49.3870066,15.5769079 49.2972039,15.4298684 C49.2064145,15.2818421 49.0850329,15.1782237 48.9320724,15.1190132 C48.8037829,15.0706579 48.6715461,15.0499342 48.5333882,15.0538816 C48.3972039,15.0588158 48.1958882,15.0834868 47.9314145,15.1308553 L42.5817434,16.0732895 L42.5817434,11.1686842 Z M35.9462171,26.7963158 C36.2126645,26.7499342 36.4139803,26.7045395 36.5501645,26.6611184 C36.6853618,26.6176974 36.8185855,26.5486184 36.9488487,26.4558553 C37.0988487,26.3433553 37.2212171,26.1963158 37.3120066,26.0157237 C37.4037829,25.8361184 37.4491776,25.6318421 37.4491776,25.4038816 C37.4491776,25.1778947 37.4037829,24.9894079 37.3120066,24.8423684 C37.2212171,24.6943421 37.0988487,24.5907237 36.9488487,24.5315132 C36.8185855,24.4831579 36.6853618,24.4614474 36.5501645,24.4663816 C36.4139803,24.4713158 36.2126645,24.4959868 35.9462171,24.5423684 L29.5504934,25.6713158 L29.5504934,12.8443421 C29.5504934,12.6884211 29.5485197,12.5561842 29.5435855,12.4466447 C29.540625,12.3380921 29.5327303,12.2423684 29.521875,12.1624342 C29.5110197,12.0825 29.4932566,12.0094737 29.4715461,11.9433553 C29.446875,11.87625 29.4133224,11.8051974 29.3679276,11.7272368 C29.2771382,11.5713158 29.1409539,11.4558553 28.9583882,11.3818421 C28.7768092,11.3088158 28.5646382,11.2940132 28.321875,11.3364474 C28.0791118,11.3778947 27.8659539,11.4686842 27.6833882,11.6068421 C27.5018092,11.745 27.365625,11.9078289 27.2738487,12.0963158 C27.2284539,12.1900658 27.1939145,12.2749342 27.1722039,12.3489474 C27.1485197,12.4229605 27.1317434,12.5028947 27.1208882,12.5867763 C27.1080592,12.6706579 27.1011513,12.7683553 27.0972039,12.8778947 C27.0942434,12.9874342 27.0922697,13.1216447 27.0922697,13.2775658 L27.0922697,26.8091447 C27.0922697,26.9966447 27.1060855,27.1930263 27.1376645,27.3992763 C27.1682566,27.6055263 27.2699013,27.7831579 27.4445724,27.9321711 C27.6192434,28.0801974 27.8087171,28.1532237 28.0129934,28.1482895 C28.2182566,28.1433553 28.4126645,28.1255921 28.5932566,28.0930263 L35.9462171,26.7963158 Z M21.2541118,26.0315132 L22.0623355,28.1305263 C22.1669408,28.3930263 22.2547697,28.5854605 22.3238487,28.7058553 C22.3919408,28.8272368 22.4837171,28.9239474 22.5972039,28.9979605 C22.7935855,29.1272368 23.0185855,29.1706579 23.2682566,29.12625 C23.4419408,29.0956579 23.6087171,29.0325 23.7685855,28.9367763 C23.9284539,28.8440132 24.0606908,28.7285526 24.1672697,28.5923684 C24.2817434,28.4463158 24.3606908,28.3051974 24.4070724,28.1680263 C24.4524671,28.0308553 24.4722039,27.8946711 24.4682566,27.7584868 C24.4652961,27.6213158 24.4416118,27.4831579 24.4001645,27.3410526 C24.3587171,27.2009211 24.3074013,27.0528947 24.2472039,26.8999342 L19.2853618,14.1499342 C19.2014803,13.9229605 19.1225329,13.7542105 19.0504934,13.6446711 C18.9794408,13.5371053 18.8945724,13.4443421 18.7949013,13.3683553 C18.6735197,13.2716447 18.5432566,13.2075 18.403125,13.1729605 C18.2620066,13.1394079 18.0932566,13.1403947 17.8958882,13.1749342 C17.6985197,13.2094737 17.5297697,13.2686842 17.390625,13.3505921 C17.2485197,13.4344737 17.1182566,13.5469737 16.996875,13.6841447 C16.8991776,13.7966447 16.8133224,13.9190132 16.7402961,14.0522368 C16.6682566,14.1874342 16.5912829,14.3818421 16.5074013,14.6403947 L11.5455592,29.1390789 C11.484375,29.31375 11.4330592,29.4805263 11.3916118,29.6344737 C11.3491776,29.7923684 11.3264803,29.9384211 11.3225329,30.0765789 C11.3185855,30.2127632 11.3412829,30.3420395 11.3866776,30.4634211 C11.4310855,30.5848026 11.5120066,30.6982895 11.6254934,30.8038816 C11.7310855,30.9025658 11.8643092,30.9706579 12.0231908,31.0091447 C12.1820724,31.0476316 12.3488487,31.0515789 12.5245066,31.02 C12.7751645,30.9765789 12.9981908,30.8551974 13.1965461,30.6558553 C13.3100329,30.5403947 13.4008224,30.4121053 13.4689145,30.2670395 C13.5370066,30.1219737 13.6238487,29.8999342 13.7314145,29.5979605 L14.5396382,27.21375 L21.2541118,26.0315132 Z M20.4902961,24.0055263 L15.3004934,24.9213158 L17.8958882,17.1528947 L20.4902961,24.0055263 Z M11.5800987,14.9216447 C11.4873355,14.7736184 11.3659539,14.6690132 11.2159539,14.6107895 C11.0866776,14.5634211 10.9524671,14.5417105 10.8162829,14.5456579 C10.6810855,14.5496053 10.4797697,14.57625 10.2133224,14.6236184 L1.65444079,16.1325 C1.38996711,16.1788816 1.18865132,16.2242763 1.05246711,16.2676974 C0.914309211,16.3111184 0.782072368,16.3801974 0.653782895,16.4729605 C0.500822368,16.5864474 0.379440789,16.7315132 0.288651316,16.9130921 C0.198848684,17.0926974 0.152467105,17.2969737 0.152467105,17.5239474 C0.152467105,17.7509211 0.198848684,17.9384211 0.288651316,18.0854605 C0.379440789,18.2344737 0.500822368,18.3380921 0.653782895,18.3982895 C0.782072368,18.4456579 0.914309211,18.4673684 1.05246711,18.4624342 C1.18865132,18.4575 1.38996711,18.4318421 1.65444079,18.3854605 L4.70476974,17.8476316 L4.70476974,30.6746053 C4.70476974,30.8295395 4.70674342,30.96375 4.71069079,31.0723026 C4.71463816,31.1808553 4.72253289,31.2755921 4.73338816,31.3555263 C4.74424342,31.4354605 4.76200658,31.5114474 4.78371711,31.5815132 C4.80838816,31.6505921 4.84194079,31.7216447 4.88733553,31.7917105 C4.978125,31.9486184 5.11430921,32.0621053 5.296875,32.1361184 C5.47845395,32.2101316 5.690625,32.2239474 5.93338816,32.1825 C6.17615132,32.1400658 6.38930921,32.0492763 6.571875,31.9121053 C6.75345395,31.7729605 6.890625,31.6101316 6.98141447,31.4226316 C7.02680921,31.3367763 7.06134868,31.2548684 7.08305921,31.1759211 C7.10674342,31.0979605 7.12253289,31.0160526 7.13536184,30.9321711 C7.14720395,30.8482895 7.15411184,30.7496053 7.15707237,30.6410526 C7.16101974,30.5305263 7.16299342,30.3973026 7.16299342,30.2403947 L7.16299342,17.4144079 L10.2133224,16.8765789 C10.4797697,16.8292105 10.6810855,16.7848026 10.8162829,16.7403947 C10.9524671,16.6969737 11.0866776,16.6288816 11.2159539,16.5351316 C11.3659539,16.4226316 11.4873355,16.2746053 11.5800987,16.0959868 C11.6708882,15.9153947 11.7162829,15.7121053 11.7162829,15.4851316 C11.7162829,15.2581579 11.6708882,15.0706579 11.5800987,14.9216447 L11.5800987,14.9216447 Z" id="Fill-71" fill="#1D1D1B" mask="url(#mask-6)"></path>
            </g>
            <path d="M160.653849,223.913586 L160.653849,218.398125 C160.653849,218.241217 160.651875,218.10898 160.647928,217.999441 C160.64398,217.890888 160.637072,217.797138 160.62523,217.717204 C160.614375,217.63727 160.596612,217.563257 160.573914,217.496151 C160.551217,217.43102 160.517664,217.357993 160.471283,217.280033 C160.380493,217.124112 160.244309,217.008651 160.061743,216.936612 C159.880164,216.861612 159.667007,216.846809 159.424243,216.889243 C159.18148,216.932664 158.969309,217.023454 158.786743,217.160625 C158.605164,217.297796 158.46898,217.460625 158.377204,217.649112 C158.331809,217.742862 158.298257,217.82773 158.275559,217.901743 C158.251875,217.976743 158.235099,218.055691 158.224243,218.139572 C158.212401,218.223454 158.205493,218.321151 158.201546,218.431678 C158.197599,218.542204 158.195625,218.674441 158.195625,218.832336 L158.195625,232.28102 C158.195625,232.436941 158.197599,232.569178 158.201546,232.67773 C158.205493,232.786283 158.212401,232.88102 158.224243,232.960954 C158.235099,233.040888 158.251875,233.116875 158.275559,233.186941 C158.298257,233.257007 158.331809,233.327072 158.377204,233.397138 C158.46898,233.555033 158.605164,233.66852 158.786743,233.741546 C158.969309,233.815559 159.18148,233.830362 159.424243,233.787928 C159.667007,233.745493 159.880164,233.654704 160.061743,233.517533 C160.244309,233.379375 160.380493,233.216546 160.471283,233.028059 C160.517664,232.942204 160.551217,232.860296 160.573914,232.781349 C160.596612,232.703388 160.614375,232.62148 160.62523,232.537599 C160.637072,232.453717 160.64398,232.357993 160.647928,232.24648 C160.651875,232.135954 160.653849,232.00273 160.653849,231.845822 L160.653849,226.166546 L167.232138,225.00602 L167.232138,230.686283 C167.232138,230.843191 167.234112,230.975428 167.238059,231.084967 C167.242007,231.19352 167.248914,231.288257 167.260757,231.369178 C167.271612,231.448125 167.289375,231.523125 167.312072,231.593191 C167.335757,231.664243 167.368322,231.734309 167.414704,231.804375 C167.505493,231.960296 167.641678,232.075757 167.82523,232.14977 C168.005822,232.221809 168.217993,232.238586 168.461743,232.195164 C168.704507,232.15273 168.916678,232.061941 169.098257,231.923783 C169.280822,231.786612 169.417007,231.622796 169.508783,231.435296 C169.555164,231.348454 169.58773,231.266546 169.610428,231.187599 C169.633125,231.109638 169.650888,231.028717 169.661743,230.943849 C169.673586,230.859967 169.680493,230.763257 169.684441,230.65273 C169.688388,230.542204 169.690362,230.40898 169.690362,230.253059 L169.690362,216.804375 C169.690362,216.648454 169.688388,216.51523 169.684441,216.407664 C169.680493,216.297138 169.673586,216.204375 169.661743,216.122467 C169.650888,216.042533 169.633125,215.969507 169.610428,215.903388 C169.58773,215.836283 169.555164,215.764243 169.508783,215.686283 C169.417007,215.530362 169.280822,215.416875 169.098257,215.341875 C168.916678,215.268849 168.704507,215.254046 168.461743,215.297467 C168.217993,215.339901 168.005822,215.428717 167.82523,215.566875 C167.641678,215.70602 167.505493,215.868849 167.414704,216.055362 C167.368322,216.150099 167.335757,216.23398 167.312072,216.307993 C167.289375,216.382993 167.271612,216.461941 167.260757,216.545822 C167.248914,216.630691 167.242007,216.727401 167.238059,216.837928 C167.234112,216.948454 167.232138,217.081678 167.232138,217.237599 L167.232138,222.753059 L160.653849,223.913586 Z M143.399901,230.476086 C143.422599,231.13727 143.486743,231.722467 143.593322,232.232664 C143.699901,232.740888 143.860757,233.191875 144.076875,233.583651 C144.292993,233.976414 144.598914,234.340559 144.993651,234.678059 C145.516678,235.125099 146.121612,235.438914 146.808454,235.613586 C147.495296,235.79023 148.282796,235.800099 149.169967,235.644178 C149.678191,235.553388 150.139046,235.432993 150.552533,235.282993 C150.96602,235.13102 151.34398,234.953388 151.685428,234.748125 C152.026875,234.542862 152.33773,234.307993 152.61898,234.044507 C152.90023,233.779046 153.164704,233.487928 153.415362,233.169178 C153.643322,232.879046 153.836743,232.590888 153.995625,232.304704 C154.155493,232.01852 154.281809,231.749112 154.377533,231.498454 C154.47227,231.247796 154.542336,231.014901 154.588717,230.803717 C154.633125,230.59352 154.655822,230.411941 154.655822,230.263914 C154.655822,230.044836 154.630164,229.86523 154.575888,229.727072 C154.522599,229.586941 154.439704,229.46852 154.326217,229.370822 C154.082467,229.179375 153.798257,229.113257 153.472599,229.169507 C153.320625,229.197138 153.182467,229.244507 153.057138,229.314572 C152.931809,229.382664 152.827204,229.459638 152.744309,229.544507 C152.615033,229.676743 152.504507,229.826743 152.413717,229.995493 C152.322928,230.164243 152.232138,230.366546 152.140362,230.601414 C151.844309,231.374112 151.457467,231.998783 150.979836,232.479375 C150.502204,232.957993 149.883454,233.264901 149.124572,233.398125 C148.646941,233.482007 148.211743,233.468191 147.821941,233.351743 C147.431151,233.23727 147.08773,233.040888 146.791678,232.765559 C146.57852,232.569178 146.407796,232.343191 146.280493,232.092533 C146.15023,231.841875 146.051546,231.526086 145.983454,231.147138 C145.915362,230.768191 145.871941,230.305362 145.852204,229.755691 C145.833454,229.207993 145.823586,228.535954 145.823586,227.736612 C145.823586,226.939243 145.833454,226.26227 145.852204,225.707664 C145.871941,225.153059 145.915362,224.674441 145.983454,224.270822 C146.051546,223.867204 146.15023,223.518849 146.280493,223.220822 C146.407796,222.923783 146.57852,222.639572 146.791678,222.368191 C147.08773,221.98727 147.431151,221.67148 147.821941,221.417862 C148.211743,221.164243 148.646941,220.99648 149.124572,220.911612 C149.883454,220.778388 150.502204,220.868191 150.979836,221.182993 C151.457467,221.497796 151.844309,221.985296 152.140362,222.644507 C152.232138,222.847796 152.322928,223.017533 152.413717,223.153717 C152.504507,223.290888 152.615033,223.402401 152.744309,223.489243 C152.827204,223.544507 152.931809,223.584967 153.057138,223.609638 C153.182467,223.634309 153.320625,223.634309 153.472599,223.606678 C153.798257,223.549441 154.082467,223.381678 154.326217,223.105362 C154.439704,222.967204 154.522599,222.820164 154.575888,222.661283 C154.630164,222.503388 154.655822,222.314901 154.655822,222.095822 C154.655822,221.946809 154.633125,221.775099 154.588717,221.579704 C154.542336,221.384309 154.47227,221.179046 154.377533,220.959967 C154.281809,220.741875 154.155493,220.518849 153.995625,220.287928 C153.836743,220.057007 153.643322,219.837928 153.415362,219.626743 C153.164704,219.397796 152.90023,219.201414 152.61898,219.035625 C152.33773,218.869836 152.026875,218.744507 151.685428,218.658651 C151.34398,218.57477 150.96602,218.529375 150.552533,218.524441 C150.139046,218.51852 149.678191,218.560954 149.169967,218.650757 C148.282796,218.806678 147.495296,219.094836 146.808454,219.513257 C146.121612,219.931678 145.516678,220.456678 144.993651,221.089243 C144.598914,221.564901 144.292993,222.038586 144.076875,222.506349 C143.860757,222.974112 143.699901,223.482336 143.593322,224.029046 C143.486743,224.575757 143.422599,225.183651 143.399901,225.85273 C143.377204,226.522796 143.365362,227.294507 143.365362,228.169836 C143.365362,229.046151 143.377204,229.814901 143.399901,230.476086 L143.399901,230.476086 Z M132.701546,223.948125 L139.211743,222.800428 C139.477204,222.754046 139.67852,222.708651 139.814704,222.66523 C139.951875,222.620822 140.084112,222.55273 140.213388,222.459967 C140.365362,222.34648 140.486743,222.201414 140.577533,222.019836 C140.668322,221.839243 140.713717,221.635954 140.713717,221.40898 C140.713717,221.182007 140.668322,220.994507 140.577533,220.847467 C140.486743,220.698454 140.365362,220.595822 140.213388,220.534638 C140.084112,220.48727 139.951875,220.465559 139.814704,220.47148 C139.67852,220.476414 139.477204,220.500099 139.211743,220.547467 L131.745296,221.863914 C131.563717,221.895493 131.370296,221.945822 131.165033,222.012928 C130.960757,222.082007 130.770296,222.219178 130.596612,222.430362 C130.421941,222.641546 130.319309,222.854704 130.288717,223.070822 C130.258125,223.287928 130.244309,223.49023 130.244309,223.678717 L130.244309,237.291217 C130.244309,237.478717 130.258125,237.675099 130.288717,237.881349 C130.319309,238.086612 130.421941,238.264243 130.596612,238.413257 C130.770296,238.564243 130.960757,238.635296 131.165033,238.630362 C131.370296,238.625428 131.563717,238.607664 131.745296,238.575099 L139.211743,237.258651 C139.477204,237.21227 139.67852,237.166875 139.814704,237.122467 C139.951875,237.079046 140.084112,237.010954 140.213388,236.917204 C140.365362,236.804704 140.486743,236.657664 140.577533,236.477072 C140.668322,236.297467 140.713717,236.094178 140.713717,235.867204 C140.713717,235.64023 140.668322,235.45273 140.577533,235.303717 C140.486743,235.156678 140.365362,235.052072 140.213388,234.993849 C140.084112,234.94648 139.951875,234.923783 139.814704,234.92773 C139.67852,234.932664 139.477204,234.958322 139.211743,235.004704 L132.701546,236.153388 L132.701546,231.106678 L138.051217,230.163257 C138.316678,230.116875 138.517993,230.07148 138.654178,230.028059 C138.790362,229.984638 138.923586,229.915559 139.052862,229.822796 C139.203849,229.710296 139.32523,229.564243 139.417007,229.382664 C139.507796,229.203059 139.553191,228.998783 139.553191,228.771809 C139.553191,228.544836 139.507796,228.357336 139.417007,228.210296 C139.32523,228.061283 139.203849,227.958651 139.052862,227.898454 C138.923586,227.850099 138.790362,227.829375 138.654178,227.834309 C138.517993,227.839243 138.316678,227.863914 138.051217,227.910296 L132.701546,228.853717 L132.701546,223.948125 Z M127.431809,223.164572 C127.34102,223.015559 127.219638,222.911941 127.067664,222.85273 C126.939375,222.805362 126.806151,222.783651 126.669967,222.788586 C126.532796,222.792533 126.332467,222.819178 126.06602,222.865559 L117.508125,224.374441 C117.241678,224.421809 117.041349,224.467204 116.904178,224.509638 C116.767993,224.554046 116.635757,224.622138 116.50648,224.714901 C116.354507,224.828388 116.233125,224.974441 116.143322,225.155033 C116.050559,225.335625 116.005164,225.538914 116.005164,225.765888 C116.005164,225.992862 116.050559,226.180362 116.143322,226.328388 C116.233125,226.477401 116.354507,226.58102 116.50648,226.641217 C116.635757,226.688586 116.767993,226.709309 116.904178,226.704375 C117.041349,226.700428 117.241678,226.67477 117.508125,226.627401 L120.558454,226.089572 L120.558454,238.916546 C120.558454,239.072467 120.559441,239.205691 120.563388,239.314243 C120.567336,239.422796 120.57523,239.51852 120.586086,239.598454 C120.597928,239.678388 120.614704,239.753388 120.637401,239.823454 C120.660099,239.89352 120.694638,239.964572 120.740033,240.033651 C120.830822,240.190559 120.967993,240.305033 121.149572,240.379046 C121.332138,240.452072 121.544309,240.466875 121.787072,240.424441 C122.029836,240.382007 122.242007,240.292204 122.424572,240.154046 C122.606151,240.015888 122.743322,239.853059 122.834112,239.664572 C122.879507,239.578717 122.914046,239.496809 122.936743,239.417862 C122.959441,239.339901 122.976217,239.257993 122.988059,239.174112 C122.998914,239.09023 123.006809,238.99352 123.010757,238.882993 C123.014704,238.773454 123.016678,238.639243 123.016678,238.483322 L123.016678,225.657336 L126.06602,225.119507 C126.332467,225.071151 126.532796,225.026743 126.669967,224.982336 C126.806151,224.938914 126.939375,224.871809 127.067664,224.777072 C127.219638,224.665559 127.34102,224.51852 127.431809,224.338914 C127.523586,224.157336 127.56898,223.954046 127.56898,223.728059 C127.56898,223.500099 127.523586,223.313586 127.431809,223.164572 L127.431809,223.164572 Z M106.752533,236.058651 C106.760428,235.877072 106.768322,235.713257 106.77523,235.568191 C106.783125,235.421151 106.797928,235.282993 106.820625,235.154704 C106.843322,235.024441 106.871941,234.900099 106.90648,234.781678 C106.940033,234.66227 106.987401,234.530033 107.048586,234.385954 C107.245954,233.905362 107.538059,233.491875 107.924901,233.14648 C108.311743,232.800099 108.786414,232.578059 109.347928,232.479375 C109.893651,232.382664 110.360428,232.439901 110.74727,232.649112 C111.134112,232.858322 111.426217,233.168191 111.623586,233.579704 C111.676875,233.703059 111.72227,233.81852 111.760757,233.926086 C111.798257,234.031678 111.828849,234.146151 111.851546,234.266546 C111.874243,234.387928 111.89102,234.520164 111.902862,234.664243 C111.913717,234.805362 111.927533,234.96523 111.942336,235.142862 L106.752533,236.058651 Z M104.863717,240.228059 C105.136086,240.955362 105.508125,241.514901 105.978849,241.909638 C106.449572,242.303388 106.999243,242.552072 107.629836,242.650757 C108.258454,242.751414 108.934441,242.737599 109.654836,242.610296 C110.276546,242.500757 110.84398,242.336941 111.356151,242.116875 C111.868322,241.898783 112.30648,241.630362 112.670625,241.316546 C112.814704,241.198125 112.955822,241.071809 113.092007,240.936612 C113.228191,240.803388 113.351546,240.66523 113.462072,240.519178 C113.571612,240.376086 113.661414,240.232007 113.729507,240.091875 C113.798586,239.94977 113.832138,239.808651 113.832138,239.667533 C113.832138,239.527401 113.80352,239.401086 113.746283,239.289572 C113.690033,239.180033 113.61602,239.084309 113.524243,239.006349 C113.433454,238.928388 113.330822,238.872138 113.217336,238.837599 C113.103849,238.803059 112.989375,238.795164 112.875888,238.816875 C112.594638,238.86523 112.279836,239.065559 111.93148,239.415888 C111.61273,239.730691 111.265362,239.981349 110.889375,240.169836 C110.514375,240.356349 110.121612,240.486612 109.712072,240.558651 C109.234441,240.642533 108.811086,240.637599 108.442993,240.542862 C108.074901,240.446151 107.76602,240.274441 107.515362,240.02477 C107.264704,239.776086 107.07523,239.457336 106.945954,239.069507 C106.816678,238.680691 106.752533,238.232664 106.752533,237.724441 L112.886743,236.642862 C113.061414,236.61227 113.238059,236.568849 113.416678,236.514572 C113.594309,236.459309 113.760099,236.339901 113.911086,236.157336 C114.055164,235.982664 114.146941,235.797138 114.184441,235.597796 C114.222928,235.401414 114.23773,235.211941 114.229836,235.033322 C114.215033,234.254704 114.093651,233.552072 113.865691,232.926414 C113.638717,232.301743 113.31602,231.787599 112.898586,231.382993 C112.482138,230.979375 111.972928,230.696151 111.373914,230.531349 C110.773914,230.367533 110.098914,230.351743 109.347928,230.48398 C108.611743,230.613257 107.941678,230.864901 107.338717,231.236941 C106.735757,231.60898 106.221612,232.091546 105.796283,232.683651 C105.371941,233.273783 105.041349,233.969507 104.80648,234.769836 C104.571612,235.571151 104.453191,236.459309 104.453191,237.43727 C104.453191,238.572138 104.590362,239.501743 104.863717,240.228059 L104.863717,240.228059 Z" id="Fill-74" fill="#1D1D1B"></path>
            <polygon id="Fill-76" fill="#009B63" points="179.926184 195.493717 179.926184 134.839441 168.996908 123.910164 65.2995395 142.195362 65.2995395 142.196349 29.3528289 148.534836 0.000197368421 153.709836 0.000197368421 160.180559 0.000197368421 182.770362 0.000197368421 226.686809 0.000197368421 256.106546 10.5426316 266.64898 94.3916447 251.864112 94.3916447 217.320691 179.926184 202.238783 179.926184 195.498651"></polygon>
            <path d="M137.891941,148.347434 L137.891941,192.275724 C137.891941,193.443158 138.757401,194.182303 139.887336,193.982961 C141.02023,193.782632 141.885691,192.738553 141.885691,191.572105 L141.885691,147.642829 C141.885691,146.476382 141.02023,145.73625 139.887336,145.935592 C138.757401,146.134934 137.891941,147.18 137.891941,148.347434 L137.891941,148.347434 Z M146.545559,192.809605 L166.582401,189.275724 C167.714309,189.076382 168.57977,188.031316 168.57977,186.864868 C168.57977,185.697434 167.714309,184.958289 166.582401,185.157632 L146.545559,188.690526 C145.412664,188.889868 144.547204,189.934934 144.547204,191.102368 C144.547204,192.268816 145.412664,193.008947 146.545559,192.809605 L146.545559,192.809605 Z M125.644243,150.575724 L125.644243,182.835592 C125.644243,184.002039 126.509704,184.742171 127.639638,184.542829 C128.772533,184.343487 129.637993,183.297434 129.637993,182.130987 L129.637993,149.871118 C129.637993,148.703684 128.772533,147.964539 127.639638,148.163882 C126.509704,148.363224 125.644243,149.408289 125.644243,150.575724 L125.644243,150.575724 Z M103.009046,194.582961 C101.744901,194.188224 100.61398,193.563553 99.7485197,192.754342 C99.0152961,192.060592 97.7511513,192.215526 96.9527961,193.111579 C96.1534539,194.006645 96.0873355,195.323092 96.8185855,196.017829 C98.1508224,197.22375 99.6804276,198.052697 101.278125,198.593487 C104.074836,199.47375 107.535691,199.687895 111.664638,198.959605 C116.856414,198.043816 120.252138,196.209276 122.115296,194.920461 C123.712993,193.815197 125.244572,192.446447 126.574836,190.770789 C127.307072,189.8175 127.240954,188.525724 126.441612,187.910921 C125.644243,187.297105 124.379112,187.589211 123.645888,188.541513 C122.780428,189.654671 121.649507,190.678026 120.384375,191.518816 C118.853783,192.544145 116.058059,194.066842 111.664638,194.841513 C109.534046,195.216513 106.138322,195.609276 103.077138,194.639211 L103.009046,194.582961 Z M97.8833882,187.66125 L97.8833882,155.401382 C97.8833882,154.234934 97.0189145,153.494803 95.8870066,153.694145 C94.7560855,153.893487 93.890625,154.938553 93.890625,156.105987 L93.890625,188.365855 C93.890625,189.532303 94.7560855,190.272434 95.8870066,190.073092 C97.0189145,189.87375 97.8833882,188.828684 97.8833882,187.66125 L97.8833882,187.66125 Z M89.6304276,199.962237 L71.3896382,159.249079 C70.9248355,158.301711 69.7268092,158.032303 68.728125,158.689539 C67.7284539,159.345789 67.2636513,160.663224 67.7284539,161.610592 L85.9692434,202.32375 C86.4340461,203.271118 87.6320724,203.540526 88.6317434,202.883289 C89.6304276,202.227039 90.0952303,200.909605 89.6304276,199.962237 L89.6304276,199.962237 Z M64.2014803,168.890526 L49.4225329,207.051711 C48.9557566,208.163882 49.4225329,209.316513 50.4202303,209.621447 C51.4199013,209.925395 52.6169408,209.233618 53.0837171,208.122434 L67.8626645,169.96125 C68.3274671,168.850066 67.8626645,167.696447 66.8629934,167.391513 C65.8652961,167.087566 64.6662829,167.779342 64.2014803,168.890526 L64.2014803,168.890526 Z M74.7853618,185.831645 L64.1333882,187.709605 C63.0014803,187.908947 62.1360197,188.954013 62.1360197,190.121447 C62.1360197,191.287895 63.0014803,192.028026 64.1333882,191.827697 L74.7853618,189.949737 C75.9172697,189.750395 76.7827303,188.705329 76.7827303,187.538882 C76.7827303,186.371447 75.9172697,185.632303 74.7853618,185.831645 L74.7853618,185.831645 Z M34.5123355,164.516842 L24.8590461,166.218158 C23.7271382,166.418487 22.8626645,167.462566 22.8626645,168.63 C22.8626645,169.796447 23.7271382,170.536579 24.8590461,170.337237 L34.5123355,168.634934 C41.8347039,167.343158 43.6978618,172.574408 43.6978618,177.035921 C43.6978618,182.939211 40.3702303,186.889539 35.3106908,187.781645 L25.059375,189.588553 C23.9274671,189.788882 23.0620066,190.833947 23.0620066,192.000395 C23.0620066,193.165855 23.9274671,193.905987 25.059375,193.707632 L35.3106908,191.899737 C42.2333882,190.679013 47.6925987,184.911908 47.6925987,176.332303 C47.6925987,168.919145 43.6307566,162.908289 34.5123355,164.516842 L34.5123355,164.516842 Z M16.1393092,169.815197 L16.1393092,213.744474 C16.1393092,214.910921 17.0037829,215.651053 18.1347039,215.450724 C19.2666118,215.251382 20.1320724,214.206316 20.1320724,213.039868 L20.1320724,169.110592 C20.1320724,167.944145 19.2666118,167.204013 18.1347039,167.404342 C17.0037829,167.603684 16.1393092,168.64875 16.1393092,169.815197 L16.1393092,169.815197 Z" id="Fill-78" fill="#FEFEFE"></path>
            <path d="M63.9827961,234.978947 L63.9827961,235.48125 C64.051875,238.077632 64.5719408,240.703618 66.0630592,242.764145 C66.8258882,243.808224 67.8304934,244.667763 69.0788487,245.197697 C70.258125,245.704934 71.6100987,245.859868 72.9966118,245.615132 C73.0656908,245.604276 73.1347697,245.591447 73.2048355,245.578618 C74.6604276,245.286513 76.0479276,244.577961 77.2262171,243.583224 C78.4045066,242.588487 79.3410197,241.350987 80.0347697,240.050329 C81.3867434,237.4875 81.8022039,234.76875 81.8022039,232.231579 C81.8022039,229.479276 81.3522039,226.733882 79.8610855,224.529276 C79.1327961,223.44375 78.1272039,222.512171 76.8798355,221.945724 C75.6660197,221.408882 74.2449671,221.230263 72.7883882,221.486842 C72.7193092,221.500658 72.6502303,221.5125 72.5801645,221.523355 C71.3327961,221.779934 69.8416776,222.399671 68.4551645,223.609539 C67.2413487,224.645724 66.3058224,225.91875 65.6120724,227.292434 C64.3637171,229.729934 63.9482566,232.304605 63.9482566,234.735197 L63.9827961,234.978947 Z M65.9584539,235.059868 L65.9584539,234.630592 L65.9584539,234.381908 C65.9584539,232.700329 66.1666776,230.305263 67.3104276,228.029605 C67.8660197,226.967763 68.5933224,225.980921 69.4952961,225.213158 C70.5354276,224.315132 71.6446382,223.833553 72.5801645,223.633224 C72.6156908,223.626316 72.7193092,223.609539 72.7193092,223.609539 C73.7594408,223.425 74.8341118,223.558224 75.7350987,223.935197 C76.6716118,224.342763 77.4689803,225.058224 78.058125,225.919737 C79.2719408,227.708882 79.6874013,229.993421 79.6874013,232.496053 C79.6874013,234.248684 79.4801645,236.786842 78.2318092,239.152303 C77.6772039,240.179605 76.9489145,241.128947 76.0824671,241.855263 C75.2150329,242.578618 74.1749013,243.119408 73.1347697,243.339474 C73.1002303,243.346382 72.9966118,243.363158 72.9966118,243.363158 C71.9910197,243.541776 70.9508882,243.438158 70.0844408,243.091776 C69.1834539,242.712829 68.3860855,242.068421 67.7959539,241.242434 C66.6176645,239.591447 66.1321382,237.388816 66.0630592,235.041118 L65.9584539,235.059868 Z M47.9308224,248.175987 C47.9308224,248.426645 47.9308224,248.676316 47.9663487,248.921053 C48.0008882,249.486513 48.5209539,249.824013 49.0755592,249.690789 C49.6647039,249.551645 50.0811513,248.940789 50.045625,248.339803 L50.045625,247.802961 C50.045625,246.480592 50.4275329,245.054605 51.1558224,243.748026 C51.7104276,242.755263 52.6114145,241.417105 54.9689803,239.213487 C56.4946382,237.764803 58.2285197,236.279605 59.5804934,234.361184 C60.2041776,233.500658 60.7242434,232.551316 61.0360855,231.531908 C61.2443092,230.850987 61.3479276,230.153289 61.3479276,229.474342 C61.3479276,229.117105 61.3133882,228.764803 61.2443092,228.420395 C60.9670066,227.110855 60.2041776,225.994737 59.0949671,225.332566 C57.8466118,224.5875 56.3554934,224.491776 55.1772039,224.7 L55.108125,224.712829 C53.8943092,224.925987 52.4031908,225.510197 51.0857566,226.671711 C49.9074671,227.7375 49.0410197,229.107237 48.6936513,230.561842 C48.5554934,231.157895 48.901875,231.669079 49.4564803,231.713487 C50.0110855,231.758882 50.5656908,231.303947 50.7048355,230.706908 C50.9130592,229.813816 51.4676645,228.893092 52.2650329,228.180592 C53.1660197,227.342763 54.2061513,226.908553 55.0380592,226.7625 L55.108125,226.749671 C55.9054934,226.609539 56.945625,226.675658 57.8120724,227.201645 C58.5403618,227.645724 59.0258882,228.346382 59.1640461,229.14375 C59.1985855,229.353947 59.233125,229.562171 59.233125,229.776316 C59.233125,230.204605 59.1640461,230.645724 59.0258882,231.098684 C58.8176645,231.780592 58.4357566,232.491118 57.9502303,233.183882 C56.8755592,234.695724 55.2808224,236.084211 53.6860855,237.582237 C52.0913487,239.078289 50.4620724,240.758882 49.3528618,242.777961 C48.4508882,244.438816 47.9308224,246.245724 47.9308224,247.997368 L47.9308224,248.175987 Z M51.7104276,249.226974 L60.5850987,247.661842 C61.1752303,247.557237 61.6252303,247.0125 61.6252303,246.404605 C61.6252303,245.797697 61.1752303,245.411842 60.5850987,245.517434 L51.7104276,247.081579 C51.1212829,247.185197 50.6702961,247.728947 50.6702961,248.336842 C50.6702961,248.944737 51.1212829,249.329605 51.7104276,249.226974 L51.7104276,249.226974 Z M27.6502303,241.385526 L27.6502303,241.885855 C27.7193092,244.484211 28.239375,247.108224 29.7304934,249.169737 C30.4933224,250.214803 31.4989145,251.074342 32.7462829,251.605263 C33.9255592,252.111513 35.2775329,252.267434 36.6640461,252.022697 C36.733125,252.010855 36.8031908,251.997039 36.8722697,251.985197 C38.3278618,251.693092 39.7153618,250.984539 40.8936513,249.988816 C42.0729276,248.995066 43.0084539,247.757566 43.7022039,246.455921 C45.0541776,243.893092 45.4696382,241.174342 45.4696382,238.637171 C45.4696382,235.883882 45.0196382,233.140461 43.5285197,230.935855 C42.8002303,229.850329 41.795625,228.917763 40.5472697,228.351316 C39.3334539,227.815461 37.9124013,227.637829 36.4558224,227.893421 C36.3867434,227.905263 36.3176645,227.919079 36.2475987,227.929934 C35.0002303,228.185526 33.5091118,228.80625 32.1225987,230.017105 C30.9087829,231.052303 29.9732566,232.326316 29.2795066,233.699013 C28.0311513,236.135526 27.6156908,238.711184 27.6156908,241.141776 L27.6502303,241.385526 Z M29.6258882,241.466447 L29.6258882,241.038158 L29.6258882,240.788487 C29.6258882,239.107895 29.8341118,236.710855 30.9788487,234.436184 C31.5334539,233.373355 32.2607566,232.386513 33.1627303,231.620724 C34.2028618,230.722697 35.3120724,230.240132 36.2475987,230.038816 C36.283125,230.032895 36.3867434,230.016118 36.3867434,230.016118 C37.426875,229.831579 38.5015461,229.963816 39.4025329,230.341776 C40.3390461,230.747368 41.1364145,231.464803 41.7255592,232.326316 C42.939375,234.114474 43.3548355,236.4 43.3548355,238.903618 C43.3548355,240.654276 43.1475987,243.193421 41.8992434,245.558882 C41.3446382,246.586184 40.6163487,247.536513 39.7499013,248.260855 C38.8834539,248.985197 37.8433224,249.525987 36.8031908,249.745066 C36.7676645,249.751974 36.6640461,249.769737 36.6640461,249.769737 C35.6584539,249.947368 34.6183224,249.844737 33.751875,249.496382 C32.8508882,249.119408 32.0535197,248.475 31.4633882,247.648026 C30.2850987,245.997039 29.7995724,243.796382 29.7304934,241.448684 L29.6258882,241.466447 Z M11.5992434,254.582566 C11.5992434,254.833224 11.5992434,255.082895 11.6337829,255.327632 C11.6683224,255.893092 12.1883882,256.230592 12.7429934,256.096382 C13.3321382,255.958224 13.7485855,255.348355 13.7140461,254.746382 L13.7140461,254.209539 C13.7140461,252.887171 14.0949671,251.461184 14.8232566,250.153618 C15.3778618,249.161842 16.2788487,247.824671 18.6364145,245.620066 C20.1620724,244.171382 21.8959539,242.687171 23.2479276,240.767763 C23.8716118,239.907237 24.3916776,238.957895 24.7035197,237.9375 C24.9117434,237.258553 25.0153618,236.560855 25.0153618,235.880921 C25.0153618,235.523684 24.9808224,235.171382 24.9117434,234.826974 C24.6344408,233.517434 23.8716118,232.401316 22.7624013,231.739145 C21.5140461,230.993092 20.0239145,230.898355 18.8446382,231.105592 L18.7755592,231.118421 C17.5617434,231.333553 16.0716118,231.916776 14.7541776,233.078289 C13.5749013,234.144079 12.7084539,235.512829 12.3610855,236.968421 C12.2229276,237.564474 12.5693092,238.075658 13.1239145,238.121053 C13.6785197,238.165461 14.2341118,237.711513 14.3722697,237.113487 C14.5804934,236.220395 15.1350987,235.298684 15.9324671,234.587171 C16.8334539,233.748355 17.8735855,233.315132 18.7064803,233.168092 L18.7755592,233.15625 C19.5729276,233.016118 20.6130592,233.082237 21.4795066,233.608224 C22.2077961,234.053289 22.6933224,234.752961 22.8314803,235.550329 C22.8660197,235.758553 22.9005592,235.967763 22.9005592,236.182895 C22.9005592,236.611184 22.8314803,237.053289 22.6933224,237.50625 C22.4850987,238.185197 22.1031908,238.897697 21.6186513,239.589474 C20.5429934,241.101316 18.9482566,242.490789 17.3535197,243.987829 C15.7587829,245.484868 14.1295066,247.166447 13.0202961,249.185526 C12.1193092,250.844408 11.5992434,252.652303 11.5992434,254.404934 L11.5992434,254.582566 Z M15.3778618,255.633553 L24.2535197,254.068421 C24.8426645,253.962829 25.2926645,253.420066 25.2926645,252.811184 C25.2926645,252.203289 24.8426645,251.818421 24.2535197,251.922039 L15.3778618,253.487171 C14.7887171,253.591776 14.3377303,254.135526 14.3377303,254.743421 C14.3377303,255.352303 14.7887171,255.736184 15.3778618,255.633553 L15.3778618,255.633553 Z" id="Fill-80" fill="#FEFEFE"></path>
        </g>
    </g>
</svg>